<svg xmlns="http://www.w3.org/2000/svg" viewBox="0 0 500 500"><g id="freepik--background-complete--inject-95"><path d="M132,62.12c3.58.77,6.13,5.27,4,8.63a6,6,0,0,1-11.16-4A6.08,6.08,0,0,1,132,62.12Z" style="fill:#ebebeb"></path><path d="M350.8,41.19c3.58.78,6.13,5.28,4,8.63a6,6,0,0,1-11.15-4A6.07,6.07,0,0,1,350.8,41.19Z" style="fill:#ebebeb"></path><path d="M85.13,187.34c3.58.78,6.13,5.28,4.05,8.63a6,6,0,0,1-11.16-4A6.07,6.07,0,0,1,85.13,187.34Z" style="fill:#ebebeb"></path><path d="M447.81,270.18c2,.42,3.37,2.89,2.22,4.73a3.25,3.25,0,0,1-3.17,1.73,3.29,3.29,0,0,1-3-3.94A3.34,3.34,0,0,1,447.81,270.18Z" style="fill:#ebebeb"></path><path d="M322,40.55c2,.42,3.37,2.89,2.22,4.73a3.29,3.29,0,0,1-6.13-2.21A3.33,3.33,0,0,1,322,40.55Z" style="fill:#ebebeb"></path><path d="M88.15,140.36c2,.43,3.37,2.9,2.22,4.74a3.29,3.29,0,0,1-6.13-2.22A3.34,3.34,0,0,1,88.15,140.36Z" style="fill:#ebebeb"></path><path d="M106.83,301.17a2.19,2.19,0,0,1,1.47,3.14,2.18,2.18,0,0,1-4.06-1.47A2.2,2.2,0,0,1,106.83,301.17Z" style="fill:#ebebeb"></path><path d="M426.49,286.77a2.21,2.21,0,0,1,1.47,3.15,2.18,2.18,0,0,1-4.06-1.47A2.2,2.2,0,0,1,426.49,286.77Z" style="fill:#ebebeb"></path><path d="M68.11,167.33A2.17,2.17,0,1,1,65.52,169,2.19,2.19,0,0,1,68.11,167.33Z" style="fill:#ebebeb"></path><path d="M432.58,111.12a2.19,2.19,0,0,1,1.47,3.14,2.19,2.19,0,0,1-4.07-1.47A2.21,2.21,0,0,1,432.58,111.12Z" style="fill:#ebebeb"></path><path d="M176.39,39.45a2.17,2.17,0,0,1-.63,4.29,2.18,2.18,0,0,1-2-2.61A2.21,2.21,0,0,1,176.39,39.45Z" style="fill:#ebebeb"></path><path d="M74.56,255.7a2.08,2.08,0,0,1-2.24-2.19,2.13,2.13,0,1,1,4.24-.26A2.17,2.17,0,0,1,74.56,255.7Z" style="fill:#ebebeb"></path><path d="M48,234.37a2.08,2.08,0,0,1-2.24-2.19,2.13,2.13,0,1,1,4.24-.26A2.17,2.17,0,0,1,48,234.37Z" style="fill:#ebebeb"></path><path d="M53.94,258.81a2.08,2.08,0,0,1-3.13-.15,2.13,2.13,0,1,1,3-3A2.17,2.17,0,0,1,53.94,258.81Z" style="fill:#ebebeb"></path><path d="M70.88,230.79a2.07,2.07,0,0,1-3.12-.15,2.12,2.12,0,1,1,3-3A2.16,2.16,0,0,1,70.88,230.79Z" style="fill:#ebebeb"></path><path d="M53.26,219.62c-.22-1.09,0-2.91,2.51-3.49a2.92,2.92,0,1,1,1.22,5.7A3,3,0,0,1,53.26,219.62Z" style="fill:#ebebeb"></path><path d="M63.56,268.17c-.22-1.09,0-2.91,2.51-3.49a2.92,2.92,0,1,1,1.23,5.71A3,3,0,0,1,63.56,268.17Z" style="fill:#ebebeb"></path><path d="M39.71,244.5c1.1-.2,2.92.07,3.43,2.58a2.92,2.92,0,1,1-5.72,1.1A3,3,0,0,1,39.71,244.5Z" style="fill:#ebebeb"></path><path d="M81.11,236.38c1.1-.19,2.91.08,3.43,2.59a2.92,2.92,0,1,1-5.72,1.1A3,3,0,0,1,81.11,236.38Z" style="fill:#ebebeb"></path><path d="M66.14,265.8a223.39,223.39,0,0,1-6-23.17A220.53,220.53,0,0,1,56.33,219a220.43,220.43,0,0,1,6,23.18A223.29,223.29,0,0,1,66.14,265.8Z" style="fill:#ebebeb"></path><path d="M80.23,239.54a150.91,150.91,0,0,1-19.18,4.76,147.53,147.53,0,0,1-19.6,2.52,150.5,150.5,0,0,1,19.18-4.76A152.66,152.66,0,0,1,80.23,239.54Z" style="fill:#ebebeb"></path><path d="M53.41,256.77a101.77,101.77,0,0,1,15.07-26.31,88.18,88.18,0,0,1-6.55,13.72A89.51,89.51,0,0,1,53.41,256.77Z" style="fill:#ebebeb"></path><path d="M73.1,252.54A104.58,104.58,0,0,1,49,233.34a91.26,91.26,0,0,1,12.77,8.71A93.55,93.55,0,0,1,73.1,252.54Z" style="fill:#ebebeb"></path><path d="M445.71,233.59a2.08,2.08,0,0,1-.93-3,2.13,2.13,0,1,1,3.86,1.79A2.16,2.16,0,0,1,445.71,233.59Z" style="fill:#ebebeb"></path><path d="M432.5,202.21a2.08,2.08,0,0,1-.93-3,2.13,2.13,0,1,1,3.86,1.79A2.16,2.16,0,0,1,432.5,202.21Z" style="fill:#ebebeb"></path><path d="M426.09,226.53a2.08,2.08,0,0,1-2.68-1.62,2.13,2.13,0,1,1,4.07-1.22A2.17,2.17,0,0,1,426.09,226.53Z" style="fill:#ebebeb"></path><path d="M454.32,209.94a2.08,2.08,0,0,1-2.68-1.62,2.13,2.13,0,1,1,4.07-1.22A2.16,2.16,0,0,1,454.32,209.94Z" style="fill:#ebebeb"></path><path d="M444.13,191.73c.32-1.07,1.4-2.56,3.86-1.88a2.92,2.92,0,1,1-1.63,5.6A3,3,0,0,1,444.13,191.73Z" style="fill:#ebebeb"></path><path d="M430.11,239.34c.32-1.07,1.39-2.56,3.86-1.87a2.92,2.92,0,1,1-1.63,5.59A3,3,0,0,1,430.11,239.34Z" style="fill:#ebebeb"></path><path d="M420.38,207.17c1.06.35,2.53,1.45,1.79,3.91a2.92,2.92,0,1,1-5.56-1.76A3,3,0,0,1,420.38,207.17Z" style="fill:#ebebeb"></path><path d="M460.66,219.72c1.06.35,2.52,1.46,1.79,3.91a2.92,2.92,0,1,1-5.56-1.76A3,3,0,0,1,460.66,219.72Z" style="fill:#ebebeb"></path><path d="M433.5,238.48a221.55,221.55,0,0,1,5.73-23.25,218.47,218.47,0,0,1,7.91-22.6,220.94,220.94,0,0,1-5.73,23.25A223.28,223.28,0,0,1,433.5,238.48Z" style="fill:#ebebeb"></path><path d="M458.38,222.08a151.61,151.61,0,0,1-19.13-4.93A149.68,149.68,0,0,1,420.8,210,149.68,149.68,0,0,1,439.94,215,151.73,151.73,0,0,1,458.38,222.08Z" style="fill:#ebebeb"></path><path d="M426.6,224.49a101.69,101.69,0,0,1,25.76-16,88,88,0,0,1-12.28,9A89.75,89.75,0,0,1,426.6,224.49Z" style="fill:#ebebeb"></path><path d="M445.92,230.13a94.46,94.46,0,0,1-7.08-13.74,91.88,91.88,0,0,1-5-14.62,91.93,91.93,0,0,1,7.08,13.73A93,93,0,0,1,445.92,230.13Z" style="fill:#ebebeb"></path><path d="M410.21,94.6a2.07,2.07,0,0,1-1.64-2.66,2.13,2.13,0,1,1,4.18.77A2.17,2.17,0,0,1,410.21,94.6Z" style="fill:#ebebeb"></path><path d="M389.59,67.51A2.08,2.08,0,0,1,388,64.85a2.13,2.13,0,1,1,4.18.77A2.17,2.17,0,0,1,389.59,67.51Z" style="fill:#ebebeb"></path><path d="M389.45,92.66a2.09,2.09,0,0,1-3-.9,2,2,0,0,1,.68-3,2,2,0,0,1,2.95.83A2.17,2.17,0,0,1,389.45,92.66Z" style="fill:#ebebeb"></path><path d="M412.65,69.55a2.09,2.09,0,0,1-3-.9,2.13,2.13,0,1,1,3.64-2.2A2.16,2.16,0,0,1,412.65,69.55Z" style="fill:#ebebeb"></path><path d="M398.24,54.46c0-1.12.71-2.82,3.27-2.78a2.92,2.92,0,1,1-.18,5.83A3,3,0,0,1,398.24,54.46Z" style="fill:#ebebeb"></path><path d="M396.53,104.06c.05-1.11.72-2.82,3.28-2.78a2.92,2.92,0,1,1-.18,5.83A3,3,0,0,1,396.53,104.06Z" style="fill:#ebebeb"></path><path d="M379.1,75.34c1.11.07,2.8.77,2.7,3.33a2.92,2.92,0,1,1-5.82-.31A3,3,0,0,1,379.1,75.34Z" style="fill:#ebebeb"></path><path d="M421.23,77.44c1.11.07,2.81.78,2.71,3.34a2.92,2.92,0,1,1-5.83-.31A3,3,0,0,1,421.23,77.44Z" style="fill:#ebebeb"></path><path d="M399.61,102.39a225.23,225.23,0,0,1-.26-24,222.32,222.32,0,0,1,2-23.86,219.9,219.9,0,0,1,.26,23.94A222.72,222.72,0,0,1,399.61,102.39Z" style="fill:#ebebeb"></path><path d="M419.61,80.3a151.5,151.5,0,0,1-19.76,0A149.8,149.8,0,0,1,380.22,78a171.74,171.74,0,0,1,39.39,2.29Z" style="fill:#ebebeb"></path><path d="M389.43,90.55a90.42,90.42,0,0,1,9.66-11.74,89.59,89.59,0,0,1,11.3-10.16,88.88,88.88,0,0,1-9.65,11.74A89.76,89.76,0,0,1,389.43,90.55Z" style="fill:#ebebeb"></path><path d="M409.55,91.19a92.62,92.62,0,0,1-10.28-11.53,91.34,91.34,0,0,1-8.48-12.92,92.62,92.62,0,0,1,10.29,11.53A93.34,93.34,0,0,1,409.55,91.19Z" style="fill:#ebebeb"></path><path d="M388.25,282.78a29.07,29.07,0,0,0,1.44,12.65c2.92,8.52,10.79,14.23,13.81,22.58,0,1.07,0,2.15-.09,3.25,0,0,0,0,0,.05a0,0,0,0,0,0,0h0c0,.05.06.07.09.08a3.06,3.06,0,0,0,.1-.38,6.09,6.09,0,0,0,.17-.71c.08-.33.15-.66.2-1,0,0,0-.15,0-.19,1.57-9.45-3.19-18.72-6.35-27.43-1.8-5-2.4-10.22-4.11-15.2-.41-1.18-.83-3.5-2.5-2.71C389.17,274.72,388.44,281.05,388.25,282.78Z" style="fill:#ebebeb"></path><path d="M390.94,290.09c1.41,10.76,12.95,18.25,12.64,29.31l-.06.93c0,.22,0,.44-.07.65h0c0,.09,0,.17,0,.27s0,0,0,.05a0,0,0,0,0,0,0h0c0,.05.06.07.09.08h0a.11.11,0,0,0,.08-.08c.07-.34.11-.68.15-1a13.53,13.53,0,0,0,.11-2.45s0,0,0,0A34.42,34.42,0,0,0,401,303.68c-2.33-5.82-5-11.39-7.19-17.3-.27-.73-.83-3.7-2-3.08C390.43,284.08,390.78,288.85,390.94,290.09Zm.23-1.68c0-.61,0-4.76,1.08-4.52.64.13,1.28,3.15,1.45,3.56l2,4.74c1.4,3.32,2.81,6.63,4.2,9.95a46.3,46.3,0,0,1,3.55,12.59C401.15,305.51,391.41,298.37,391.17,288.41Z" style="fill:#fff"></path><path d="M404.6,385.48c0,.14.18.32.35.16,7.11-6.68,17.95-4.32,25.44-10.5a43.83,43.83,0,0,0,7.65-8.82,34.81,34.81,0,0,0,4.25-7.51c.14-.36.92-1.87.64-2.49-2.21-4.74-13.57,6.07-15.51,7.65-7.6,6.18-14.55,11.81-20.86,19.09-.66.75-1.31,1.52-2,2.32C404.58,385.4,404.59,385.44,404.6,385.48Z" style="fill:#ebebeb"></path><path d="M404.6,385.48l.78-.71c5.05-3.69,11.05-5.77,16.73-8.39a33.69,33.69,0,0,0,14.07-11.31c.65-.91,3.38-4.48,2.14-5.78s-3.94,2-4.66,2.61c-5.38,4.48-10.62,9-16.34,13a134.81,134.81,0,0,0-10.76,8.13c-.66.75-1.31,1.52-2,2.32C404.58,385.4,404.59,385.44,404.6,385.48Zm3.35-2.94c4-3.28,8.21-6.2,12.4-9.23q4.32-3.1,8.37-6.57c1.47-1.26,2.94-2.55,4.42-3.81.75-.63,1.5-1.25,2.26-1.85.38-.31,1.61-1.36,2.08-.79,1.27,1.56-6.37,12.06-17.44,16.46A73.39,73.39,0,0,0,408,382.54Z" style="fill:#fff"></path><path d="M415.2,367.73a.06.06,0,0,0,0,.1s.08,0,.12,0l.41-.58c.5-.71,1-1.43,1.43-2.16.09-.13.17-.26.25-.39a.2.2,0,0,0,.09-.06c5.23-7.78,14.62-11.6,18.7-20.25a37.58,37.58,0,0,0,3.07-12.3c.19-1.82,1.7-7.55-.73-8.52-1.89-.74-4.11,2-5,3.24-2.93,3.77-4.61,8.58-6.32,13s-3.13,8.69-4.68,13a77.29,77.29,0,0,1-5.35,11.42C416.53,365.39,415.87,366.55,415.2,367.73Z" style="fill:#ebebeb"></path><path d="M415.2,367.73a.06.06,0,0,0,0,.1c.42-.65.85-1.3,1.28-1.94-.25.45-.51.89-.75,1.33.5-.71,1-1.43,1.43-2.16l.68-1.14a105.82,105.82,0,0,1,10.05-12,22.23,22.23,0,0,0,4.37-6.3c2-4.37,4.49-14.25,3.43-15.48s-2.21,2-2.56,2.71c-2.8,5.81-4.82,11.93-7.94,17.6-2.11,3.8-4.25,7.59-6.39,11.39q-.85,1.18-1.65,2.43C416.53,365.39,415.87,366.55,415.2,367.73Zm5.29-8.19c2.16-3.59,4.28-7.2,6.2-10.91,1.59-3.08,2.88-6.29,4.2-9.49.65-1.61,1.31-3.2,2-4.77.2-.43,1.56-4,2.25-3.83s.13,2.81,0,3.51a103.53,103.53,0,0,1-2.82,10.06c-1.2,3.48-3.35,6-5.88,8.61A78.32,78.32,0,0,0,420.49,359.54Z" style="fill:#fff"></path><path d="M374.69,417.27a.06.06,0,0,0,.08.06.08.08,0,0,0,.07-.08c0-.22,0-.42,0-.64,0-.77,0-1.54,0-2.31,0-.14,0-.28,0-.42l0-.08c-.08-8.36,4.9-15.91,3.55-24.33a33.59,33.59,0,0,0-3.94-10.6c-.78-1.44-2.56-6.41-4.84-5.9-1.77.4-2,3.58-2.07,4.92-.26,4.25.93,8.64,1.89,12.75s2.08,8,3.13,12a68.23,68.23,0,0,1,1.83,11.09C374.5,414.87,374.59,416.07,374.69,417.27Z" style="fill:#ebebeb"></path><path d="M374.69,417.27a.06.06,0,0,0,.08.06c0-.69,0-1.39,0-2.08,0,.46.08.92.12,1.36,0-.77,0-1.54,0-2.31,0-.39-.06-.78-.08-1.18a93,93,0,0,1,1.33-13.93,19.89,19.89,0,0,0,0-6.84c-.75-4.22-3.89-12.75-5.29-13.12s-.62,2.58-.52,3.28c.87,5.69,2.47,11.21,3,17q.56,5.79,1,11.6c0,.87,0,1.75,0,2.62C374.5,414.87,374.59,416.07,374.69,417.27Zm-.23-8.69c-.22-3.73-.48-7.46-.94-11.16-.38-3.07-1-6.08-1.7-9.1-.32-1.51-.64-3-.9-4.54-.08-.41-.86-3.71-.28-3.95s1.52,2,1.75,2.6c1.11,2.87,2.18,5.85,3,8.83a20.43,20.43,0,0,1,0,9.3A67.83,67.83,0,0,0,374.46,408.58Z" style="fill:#fff"></path><path d="M375,424.16a1.23,1.23,0,0,0,.59-.34c7.66-4.68,16.66-6.49,24.37-11.18a24.54,24.54,0,0,0,8.46-8.12c.87-1.46,3.9-6.5,2.69-8.35-3.64-5.56-28,18.59-35.86,27.12a1.82,1.82,0,0,0-.37.36C374.65,424,374.74,424.19,375,424.16Z" style="fill:#ebebeb"></path><path d="M375,424.16c.55-.45,1.1-.91,1.66-1.35,1.85-1.18,3.73-2.32,5.67-3.35,3.08-1.63,6.33-2.87,9.49-4.32a32.16,32.16,0,0,0,12.54-10c.71-.95,2.87-3.51,2-4.88s-2.59.46-3.26.94c-9.54,6.94-18.67,14.56-27.78,22.08l-.48.37C374.65,424,374.74,424.19,375,424.16Zm4.36-3.56q5.37-4.35,10.75-8.65,4.23-3.37,8.47-6.7c1.4-1.1,2.78-2.22,4.2-3.29.56-.42,2.72-2.08,3.11-1.26s-1,2.73-1.21,3.09c-3.81,5.71-9.39,9.31-15.59,11.95A77.44,77.44,0,0,0,379.36,420.6Z" style="fill:#fff"></path><path d="M401.63,347.14a.35.35,0,0,0,0,.32.41.41,0,0,0,.41.19.6.6,0,0,0,.23-.06.23.23,0,0,0,.14-.08c3.19-4.53,8.48-9.18,11.81-13.57a43.31,43.31,0,0,0,5.93-11.18A58.5,58.5,0,0,0,423.52,309c.24-2.23,1.14-7.56-1-9.31-4.32-3.62-8.56,13.23-9.26,15.16C409.37,325.62,405.45,336.36,401.63,347.14Z" style="fill:#ebebeb"></path><path d="M401.65,347.46a.41.41,0,0,0,.41.19l.5-1.11c1.19-2.07,2.39-4.15,3.7-6.16,2.13-3.27,4.7-6.23,6.73-9.57,3.51-5.82,8.91-23.27,6.22-24.41-1.4-.6-2.34,3-2.66,3.82-1.22,3.4-2,6.92-3.28,10.31-1.32,3.56-2.86,7-4.38,10.5-2.36,5.34-4.73,10.67-7,16.05Zm2.49-4.44c2.1-4.73,4.15-9.47,6.22-14.21,1.43-3.28,2.83-6.58,4-9.95.66-1.89,1.21-3.81,1.77-5.74.27-.93.54-1.87.87-2.79s1.3-4.05,2.2-3.09-.35,6-.64,7.19c-.48,1.92-1,3.83-1.57,5.73a46.6,46.6,0,0,1-4.63,10.73c-2.05,3.32-4.62,6.29-6.69,9.6C405.16,341.32,404.63,342.16,404.14,343Z" style="fill:#fff"></path><path d="M356.36,363.53c8.6,6.46,20.57,6.48,27.31,19.35a.05.05,0,0,0,.1,0,0,0,0,0,0,0-.05c-.52-1.33-1.08-2.64-1.7-3.94a60.92,60.92,0,0,0-13.69-18.63A46.15,46.15,0,0,0,357,352.57c-2.14-1-6.86-3.64-9.12-2.68C343,352,354.79,362.36,356.36,363.53Z" style="fill:#ebebeb"></path><path d="M355.9,358.65c3.93,5.13,10.34,7.74,15.53,11.34a52.25,52.25,0,0,1,9.78,8.56q1.32,2.13,2.56,4.33a0,0,0,0,0,0-.05c-.52-1.33-1.08-2.64-1.7-3.94-.06-.06-.11-.13-.17-.2a64.26,64.26,0,0,0-8.15-10.8,66.86,66.86,0,0,0-14.41-11.83c-.92-.56-4.09-3.17-5.3-2.13S355.35,357.94,355.9,358.65Zm-1.3-4.3c.92-.56,6.36,3.16,8.51,4.69a66.45,66.45,0,0,1,12.45,11.53,61.13,61.13,0,0,1,4.35,5.92,52.53,52.53,0,0,0-6.38-5.52c-4.73-3.51-10.3-6-14.72-9.87a18,18,0,0,1-3.09-3.43C355.37,357.17,353.77,354.85,354.6,354.35Z" style="fill:#fff"></path><path d="M357.39,319.39a49.22,49.22,0,0,0,2,11.48,48.58,48.58,0,0,0,11.31,19.26l.28.3c.13.35.26.7.42,1a2.44,2.44,0,0,0,.1.24l0,.05h0a.09.09,0,0,0,.14-.1c-.08-.45-.16-.9-.23-1.35-1.56-9.25-1.52-18.6-4.47-27.61-.65-2-4.41-14.92-8.6-11.81C356.47,312.33,357.26,317.42,357.39,319.39Z" style="fill:#ebebeb"></path><path d="M359.57,320.9c.73,5.75,3.35,11.57,5.54,16.9a132.49,132.49,0,0,0,5.63,12.33c.17.33.35.66.53,1,.05.12.11.24.17.36a1.85,1.85,0,0,0,.13.29h0a.09.09,0,0,0,.14-.1c-.08-.45-.16-.9-.23-1.35s-.31-.64-.46-1a108.76,108.76,0,0,1-3.37-15c-.49-2.75-1-5.48-1.78-8.17a37.78,37.78,0,0,0-2.65-7.78c-.57-1-1.71-3.08-3.11-2C358.94,317.29,359.42,319.69,359.57,320.9Zm3-2.54c1.53,2.8,2.32,6.29,3.11,9.37s1.29,6,1.81,9c.56,3.18,1.12,6.41,2,9.54-1.83-3.8-3.62-7.61-5.16-11.57-1.21-3.1-2.34-6.23-3.31-9.4a24.5,24.5,0,0,1-1.1-5,12.32,12.32,0,0,1-.08-1.82C359.93,316.51,361.92,317.09,362.6,318.36Z" style="fill:#fff"></path><path d="M409.59,285c0,.15,0,.3,0,.45a.27.27,0,0,0,.4.24.25.25,0,0,0,.16-.24c0-.28,0-.56,0-.84h0l0-.67q.19-.58.45-1.17c1.76-4.15,5.42-8.06,7.71-11.76a58.54,58.54,0,0,0,5.4-10.54,29.1,29.1,0,0,0,2.08-11.77c-.06-1.08-.06-3.85-1.5-4.27-1.83-.53-3.79,3.14-4.53,4.15a48.52,48.52,0,0,0-6.15,11.38C410.54,268,409.72,276.36,409.59,285Z" style="fill:#ebebeb"></path><path d="M410,283a15.48,15.48,0,0,0-.41,2c0,.15,0,.3,0,.45a.27.27,0,0,0,.4.24c0-.11,0-.22,0-.33s.11-.5.16-.75h0c.14-.62.3-1.23.48-1.84a39.71,39.71,0,0,1,2.53-6.36c1.77-3.57,3.67-7.07,5.31-10.71.82-1.82,7.11-15.85,3.51-16.41-.68-.11-1.13.86-1.41,1.27a27,27,0,0,0-2.32,4.74q-2.29,5.65-4.19,11.47A112.47,112.47,0,0,0,410,283Zm3.77-14q1.61-5.13,3.5-10.13c.62-1.63,1.23-3.27,1.93-4.87.35-.79,2.18-4.39,2.92-4.1,1.09.43-.31,5.77-.76,7.22-.53,1.66-1.13,3.29-1.77,4.9-1.3,3.24-2.82,6.4-4.4,9.51-1.39,2.77-3.11,5.74-4.32,8.84A114.07,114.07,0,0,1,413.77,269Z" style="fill:#fff"></path><path d="M388.05,333.69l.23.4a.26.26,0,0,0,.46,0,.27.27,0,0,0,0-.29l-.39-.74h0c-.11-.2-.21-.4-.31-.6a10.5,10.5,0,0,1-.2-1.23c-.56-4.48.64-9.7.77-14.05a59.19,59.19,0,0,0-.63-11.82,28.94,28.94,0,0,0-4.1-11.23c-.6-.9-2-3.3-3.44-2.94-1.85.46-1.7,4.62-1.84,5.86A49.13,49.13,0,0,0,379,310C380.37,318.56,383.85,326.2,388.05,333.69Z" style="fill:#ebebeb"></path><path d="M387.41,331.78a16.46,16.46,0,0,0,.64,1.91l.23.4a.26.26,0,0,0,.46,0c0-.1-.09-.2-.13-.31l-.24-.72h0q-.28-.92-.51-1.83a38.71,38.71,0,0,1-1-6.78c-.26-4-.37-8-.78-11.92-.21-2-1.8-17.28-5.2-16-.64.24-.55,1.31-.58,1.81a27.28,27.28,0,0,0,.37,5.26c.57,4,1.29,8,2.13,12A113.7,113.7,0,0,0,387.41,331.78Zm-3.75-14q-1.19-5.24-2.05-10.53c-.29-1.71-.58-3.44-.77-5.17-.1-.86-.32-4.9.46-5,1.15-.18,2.63,5.14,3,6.62.38,1.7.68,3.41.93,5.13.51,3.46.78,7,1,10.43.19,3.09.18,6.53.7,9.82A114.12,114.12,0,0,1,383.66,317.8Z" style="fill:#fff"></path><path d="M369.07,343.61a217.12,217.12,0,0,0,9.24,22.78c2.75,5.73,5.53,11.55,6.92,17.78,1.67,7.46,1,16.19-1.44,24.09q2.63-4.29,5.15-8.69c3.44-6,6.83-12.05,8.82-18.68.2-.65.37-1.31.54-2a.2.2,0,0,1-.06-.14,82.77,82.77,0,0,0-2.92-24.6A69.38,69.38,0,0,0,387.78,343c-2.95-3.59-5.77-7.09-7.77-11.32-.11-.24.22-.46.37-.22,3.33,5.46,9,10.33,12.84,15.93-.34-1-.69-1.95-1.07-2.93-3.55-9.32-8.68-18.41-6.94-28.71.06-.34.56-.21.52.13-1.34,11.36,6.09,22.23,9.61,32.62,2.63,7.74,4.6,16.22,4.14,24.49a131.09,131.09,0,0,0,1.07-14c1.06-28.21,3.1-56.45,11.72-83.5.08-.27.5-.17.42.1-8.54,29.21-8.51,59.24-10.21,89.32,0,.35,0,.69-.07,1a55.23,55.23,0,0,1,6.58-11.8c.12-.18.41,0,.3.16-2.94,5.67-4.89,11.63-7.42,17.44A57.14,57.14,0,0,1,399,384.25a92.31,92.31,0,0,1-6.7,13.92c4.65-5.63,9.36-11.2,13.6-17.18a249.09,249.09,0,0,0,17.52-28.27.13.13,0,0,1,.22.12A207.84,207.84,0,0,1,406.56,383c-5.58,8.07-11.63,16.37-18.89,23.11-6.18,10.5-12.9,21.13-21.61,29.59a.44.44,0,0,1-.63-.61q2.28-2.94,4.45-5.93c1-4.14,2.73-8.09,3.52-12.34a63.12,63.12,0,0,0,1-15.09c0-.37.53-.38.57,0,.84,6.82.86,15.41-1.55,22.51q3.08-4.43,6-8.94c4.63-11.05,6.67-23.54,3.08-35.07-1.85-5.92-4.67-11.45-7.19-17.1a133.88,133.88,0,0,1-6.65-19.38A.23.23,0,0,1,369.07,343.61Z" style="fill:#ebebeb"></path><path d="M150.7,305.45c.62,4.16-.64,8.89-1.63,12.89a102.33,102.33,0,0,1-4.42,13.46c-1.63,4.09-3.46,8.1-5.35,12.06l-.06.11c-.12.26-.25.52-.38.78s-.22.67-.35,1a.22.22,0,0,1-.21.14.18.18,0,0,1-.18-.24c.06-.18.12-.36.17-.54,2.27-7.71-.8-15.78.51-23.6.71-4.29,2.6-8.35,4.24-12.34.9-2.22,1.62-5.18,3-7.16.35-.53.53-1.13,1.24-1.31C149.41,300.17,150.49,304,150.7,305.45Z" style="fill:#ebebeb"></path><path d="M148.25,308c-1-1.26-2.32,1.4-2.72,2.12-2.66,4.85-4.82,10.83-5,16.38-.19,6.09-.32,12.2-2,18.08l-.29.55c0,.18-.11.36-.17.54a.18.18,0,0,0,.18.24l.12-.34c.29-.52.56-1.05.82-1.58l.06-.11a116.59,116.59,0,0,0,4.54-11.8,80.41,80.41,0,0,0,4.43-17.1,38.16,38.16,0,0,0,.32-4.27C148.61,310,148.76,308.6,148.25,308Zm0,3.63c-.08,1.51-.23,3-.45,4.49a81.4,81.4,0,0,1-4,15,114.13,114.13,0,0,1-4.8,12.58,47.41,47.41,0,0,0,1.64-10.28c.16-2.62.13-5.23.27-7.85a29.41,29.41,0,0,1,2-8.5,37,37,0,0,1,3.33-7.57c.3-.47,1.1-1.47,1.52-1.3C148.57,308.48,148.27,311,148.24,311.61Z" style="fill:#fff"></path><path d="M103.33,358.18s0,0,0,0" style="fill:#ebebeb"></path><path d="M123.72,418.71a.19.19,0,0,1,0,.25h0a.22.22,0,0,1-.19.13.35.35,0,0,1-.16-.06c-4.3-3.4-8.1-8.19-13.6-9.6-4.3-1.11-8.15-1.33-11.92-3.95a33.44,33.44,0,0,1-9.43-10.17,34,34,0,0,1-2.76-5.74c-.35-1-1.64-3.42-1.17-4.47,2.15-4.87,15.44,7.28,17.2,8.91,7.8,7.22,15.62,15.15,21.55,24a.08.08,0,0,1,0,.09.1.1,0,0,1-.07.07Z" style="fill:#ebebeb"></path><path d="M123.72,418.71l-.51-.52a.1.1,0,0,0,.07-.07c-4.16-4.73-8.69-9.18-13.26-13.5a156.81,156.81,0,0,0-15.45-13.35c-.75-.54-3.77-3.3-4.76-2.11s2,5,2.58,5.8c3.68,4.93,9.16,8,14.48,10.76,3.46,1.83,6.86,3.6,9.74,6.3,2.42,2.26,4.57,4.8,7,7.08a.22.22,0,0,0,.19-.13c-1.22-1.17-2.38-2.43-3.54-3.68,1.19,1.22,2.37,2.45,3.54,3.67A.19.19,0,0,0,123.72,418.71Zm-10.86-10.09c-5.07-3.27-10.79-5.41-15.54-9.2A24,24,0,0,1,91.5,393c-.29-.48-1.71-2.65-1.16-3.28.36-.43,1.71.3,1.9.43a44.9,44.9,0,0,1,4.16,3c4.65,3.7,9.07,7.71,13.39,11.78,2.4,2.26,4.73,4.58,7,6.93A27.73,27.73,0,0,0,112.86,408.62Z" style="fill:#fff"></path><path d="M123.27,308.72c-.33,4.72-2.24,9.33-4.39,13.51-5,9.64-12.53,18-16.46,28.21-.15.4-.3.81-.44,1.21,0,.56-.06.42-.11-.26,0,0,0,0,0,0-.2-3-.36-15.88,2.67-24.52,1.89-5.39,4.86-10.24,7.84-15.07,1.7-2.76,3.38-5.54,5.1-8.28.55-.88,1.61-3.5,3.1-3.42C123.45,300.24,123.4,306.87,123.27,308.72Z" style="fill:#ebebeb"></path><path d="M118.25,308.66a1,1,0,0,0-1.31.07,4.69,4.69,0,0,0-1,1.69c-.51,1-1,2.06-1.51,3.09-3.46,7.1-7.62,14.23-9.92,21.82A65.75,65.75,0,0,0,102,350.88l-.09.5s0,0,0,0c0,.68.09.82.11.26.14-.4.29-.81.44-1.21.12-.57.25-1.14.41-1.72a48.07,48.07,0,0,1,5-11.1,119.77,119.77,0,0,0,9.77-21,23.12,23.12,0,0,0,1.2-5C118.85,310.78,119,309.23,118.25,308.66Zm.18,2.56a7.35,7.35,0,0,1-.12,1.14,21.55,21.55,0,0,1-.54,2.38,58.45,58.45,0,0,1-1.94,5.58,164.59,164.59,0,0,1-9.27,18.79,42.72,42.72,0,0,0-4.08,9.53,85.48,85.48,0,0,1,1.3-8.63c1.51-7.31,5-13.81,8.18-20.46l2.4-4.94,1.2-2.47.6-1.24c.4-.83.34-1.22,1.37-1.29C118.8,309.53,118.47,310.17,118.43,311.22Z" style="fill:#fff"></path><path d="M121.87,353a58.7,58.7,0,0,1,.66,11.08c-.26,7.42-3.06,15.5-2.62,23,.07.5.13,1,.16,1.52a5.4,5.4,0,0,1,0,.56c0,.11-.16.13-.18,0l-.27-1s0,0,0,0c0-.17-.09-.35-.14-.53-2.14-7.69-5.42-15-5.35-23.12,0-5,1.25-18.58,4.63-18.94C120.29,345.45,121.51,350.78,121.87,353Z" style="fill:#ebebeb"></path><path d="M118.84,353.12c-.84.21-1.11,1.7-1.28,2.31a30.81,30.81,0,0,0-.83,5,50.78,50.78,0,0,0,0,9.39,99.61,99.61,0,0,0,2.81,17.88c0,.18.1.36.14.53,0,0,0,0,0,0l.27,1c0,.1.18.08.18,0a5.4,5.4,0,0,0,0-.56c-1.1-6.62-.77-13.27-.25-20C119.94,367.17,121.7,352.41,118.84,353.12Zm1.17,6.37c-.05,1.42-.13,2.83-.23,4.25-.22,3.3-.52,6.59-.7,9.89a75.15,75.15,0,0,0,.07,10.82c-.82-4.21-1.55-8.43-2-12.73a68.55,68.55,0,0,1-.32-8.48,33.51,33.51,0,0,1,.45-4.58c.11-.73.65-5,1.59-5.13C120.08,353.31,120,358.88,120,359.49Z" style="fill:#fff"></path><path d="M155.11,345c1.31,2.52-.39,6.65-1.8,8.73a21,21,0,0,1-8.18,6.61c-4.59,2.33-9.5,3.85-13.61,7s-2.79,2.22-6.1,6.65c-.07.09-.16.07-.22,0a1,1,0,0,1,0-.81,1.12,1.12,0,0,1,0-.13c3.76-7.62,9.19-13.13,16-18.31,3.84-2.93,6.63-7.07,10.57-9.85C153.25,343.85,154.2,343.26,155.11,345Z" style="fill:#ebebeb"></path><path d="M152.38,348.85c-1.07-.8-3,1.31-3.83,2a51.46,51.46,0,0,1-7.13,6.06,62.5,62.5,0,0,0-6.73,4.78,41.48,41.48,0,0,0-8.2,9.58,20.78,20.78,0,0,0-1.27,1.85,1,1,0,0,0,0,.81l.14-.25a28.32,28.32,0,0,1,12.33-10.61c5.22-2.5,10.24-5.44,13.72-10.2C152,352.07,153.37,349.6,152.38,348.85Zm-.88,3.39a22.36,22.36,0,0,1-1.88,2.36,29.24,29.24,0,0,1-4.06,3.64,50.85,50.85,0,0,1-8.38,4.74,30.79,30.79,0,0,0-9.06,6.41,42.05,42.05,0,0,1,7.47-8c2.54-2.08,5.44-3.6,8-5.6,1.2-.92,2.29-1.95,3.39-3l1.77-1.68c.52-.5,2.23-2.29,3.06-1.95C152.91,349.61,151.73,351.91,151.5,352.24Z" style="fill:#fff"></path><path d="M85.39,309.64c5.49,9.5,10.4,19.31,14.94,29.29a.28.28,0,0,1-.07.34.1.1,0,0,1,0,.05,1.54,1.54,0,0,1,.08.19.12.12,0,0,1-.07.16h-.06a.17.17,0,0,1-.12-.06c-3.56-5.26-6.91-10.19-11.92-14.21-4.58-3.67-9.18-6.88-12.86-11.52-3.14-4-10.7-22-8.18-25.38C68.79,286.21,81,302.09,85.39,309.64Z" style="fill:#ebebeb"></path><path d="M77.65,302.48c-.74-1.09-2.76-5.18-4.64-4.82s.16,4.51.52,5.37a53,53,0,0,0,4.75,9.12c1.93,2.84,4.47,5,6.87,7.37,5.92,5.91,10.75,13,15,20.16h.06a.12.12,0,0,0,.07-.16,1.54,1.54,0,0,0-.08-.19.1.1,0,0,0,0-.05C93.93,326.33,85.75,314.34,77.65,302.48Zm22.08,36.31A119.15,119.15,0,0,0,90,324.53c-4.17-5.23-9.69-9.17-13-15.06a39.51,39.51,0,0,1-4.1-9.06c-.11-.42-.56-1.85,0-2.26s1.63.45,2.88,2.16c1,1.43,2,2.92,3,4.38,3.89,5.73,7.76,11.48,11.43,17.37Q95.28,330.25,99.73,338.79Z" style="fill:#fff"></path><path d="M103.06,374.66a.16.16,0,0,1,0,.11.19.19,0,0,1-.26.08l-.63-.36a.06.06,0,0,1-.07,0c-5-1.69-9.28-1.67-14.44-1.41a23,23,0,0,1-11-2.26,38.34,38.34,0,0,1-10.1-7.28c-1.22-1.18-5.29-4.1-4.06-6.41,2-3.8,14.54,4.23,16.73,5.46a108.88,108.88,0,0,0,12,6c4.09,1.68,8.21,3.25,11.8,5.91A.12.12,0,0,1,103.06,374.66Z" style="fill:#ebebeb"></path><path d="M100.49,373.5s0,0,0,0c-2.35-1.07-4.67-2.23-7.06-3.17-2.69-1.05-5.54-1.57-8.24-2.61-5-2-9.63-4.88-14.56-7.08-.64-.28-1.92-.81-1.79.41,0,.53.68,1.08,1,1.42a24.94,24.94,0,0,0,3.21,2.87c3.89,2.93,8.58,5.45,13.43,6.21,5.63.88,11.27.93,16.53,3.23a.16.16,0,0,0,0-.11A17.43,17.43,0,0,0,100.49,373.5Zm-12.15-2.12a31.42,31.42,0,0,1-16.7-7.69c-.43-.39-1.56-1.49-1.94-2s-.82-1.34.78-.8a9.53,9.53,0,0,1,1.08.5c1.27.61,2.52,1.25,3.77,1.89,2.66,1.38,5.31,2.8,8.07,4a52.58,52.58,0,0,0,7.55,2.5,63,63,0,0,1,9,3.49C96.25,372.06,92.2,371.85,88.34,371.38Z" style="fill:#fff"></path><path d="M90.62,360.63a.52.52,0,0,1-.05.24.33.33,0,0,1-.06.1.31.31,0,0,1-.12.11l0,0a.36.36,0,0,1-.37,0,15,15,0,0,1-2-1.43c-7.79-4.93-15.75-10.09-21.41-17.45a56.37,56.37,0,0,1-7.07-12.28c-.92-2.13-3.68-6.78-2-9.17s3.68-.23,5,1.16a121.12,121.12,0,0,1,10,11.34A67,67,0,0,1,80.32,346c2.49,5.42,4.81,11,10.08,14.28A.43.43,0,0,1,90.62,360.63Z" style="fill:#ebebeb"></path><path d="M77.44,345.52a146.23,146.23,0,0,0-12.59-17.11c-.59-.71-2.33-2.56-3-1-.75,1.84,1.61,4.66,2.46,6A111.25,111.25,0,0,0,75.1,348.09,62,62,0,0,0,90.51,361a.33.33,0,0,0,.06-.1c-9.45-5.87-17-14.32-23.16-23.47-1.49-2.21-3-4.43-4.31-6.76-.21-.37-1.34-2.82-.61-3.28s2.48,1.79,2.7,2.07l3.06,3.82a173.88,173.88,0,0,1,10.48,15.07,42.21,42.21,0,0,0,11.84,12.55.52.52,0,0,0,.05-.24C85,356.64,81.07,351.38,77.44,345.52Z" style="fill:#fff"></path><path d="M92.93,269.64a42.09,42.09,0,0,1,4.1,14c.61,7.55-1,15-1.49,22.49v.09a50,50,0,0,0,0,6.12c0,.44,0,.87.09,1.31a.29.29,0,0,1-.09.25.37.37,0,0,1-.18,0,.39.39,0,0,1-.18,0h0a.31.31,0,0,1-.16-.23c-.09-.63-.15-1.26-.21-1.88a.15.15,0,0,1-.07-.1c-2.51-10-5.59-20.2-8.71-30.22a74.42,74.42,0,0,1-3.09-13.6c-.32-2.74-.53-6.9,1.82-8.89a.59.59,0,0,1,.56-.17C89.25,260.36,91.3,266.11,92.93,269.64Z" style="fill:#ebebeb"></path><path d="M88.26,269.3c-1.84-1-1.91,1.38-1.83,2.62A81.81,81.81,0,0,0,88,281.83q1,5.52,2.23,11c1.52,6.9,4.14,14,4.87,21.05,0,0,0,0,0,0h0a.39.39,0,0,0,.18,0,.37.37,0,0,0,.18,0v-1.56c0-2,0-4.08,0-6.12v-.09c.06-9.83-.09-19.61-3.3-29.29C91.49,274.6,90.53,270.57,88.26,269.3Zm4.22,9.46a69.57,69.57,0,0,1,2.75,18.58c.11,5-.14,10-.12,15-.59-4.13-1.86-8.2-2.83-12.28q-2.3-9.6-4.09-19.32c-.29-1.56-.57-3.11-.83-4.68-.24-1.38-.9-3.6-.62-5,.54-2.72,2.44-.42,3,.54a15.83,15.83,0,0,1,1.18,2.66C91.52,275.73,92,277.24,92.48,278.76Z" style="fill:#fff"></path><path d="M143.19,331a202.59,202.59,0,0,1-10.74,25.21c-3.82,7.48-7.73,14.94-10.47,22.9-3.64,10.57-5.07,22.67-1.46,33.25a130.85,130.85,0,0,1-14.4-40.89c-4.37-24.22-7.78-48.9-14.23-72.68-.11-.4-.66-.22-.6.16,2,12.69,4.93,25.25,7.09,37.92s3.93,25.25,6.29,37.8c.26,1.36.54,2.7.84,4-5.18-10-14-18.35-23.25-24-.11-.08-.21.1-.1.18a71.53,71.53,0,0,1,16.6,16.66c4,5.57,6.73,11.63,9.63,17.79a110,110,0,0,0,29.68,46.95c.14.14.35-.08.21-.22a110.17,110.17,0,0,1-14.45-18.16c-6.51-13.59-3.73-29.41,1.83-43.17,2.91-7.21,6.39-14.17,9.67-21.22s6.89-14.57,8.28-22.39A.22.22,0,0,0,143.19,331Z" style="fill:#ebebeb"></path></g><g id="freepik--Plants--inject-95"><path d="M114,371.48c-9.33.34-19.75.87-27.48-5.19C79.41,360.7,73,352.37,74,342.8c.28-2.72.9-4.41,3.83-3.24,4.45,1.77,7.88,6.68,11,10.13a94.67,94.67,0,0,0,13,12.29c3.32,2.55,6.9,4.75,10.29,7.22.43.3.85.61,1.27.94a5.46,5.46,0,0,1,.48.36H114a.46.46,0,0,1,.38.2.48.48,0,0,1,.08.16A.49.49,0,0,1,114,371.48Z" style="fill:#37474f"></path><path d="M114.5,370.87c-8.21-.14-17.07.23-23.64-5.34a38.17,38.17,0,0,1-7.62-9.26c-.95-1.55-3.79-6.15-2.62-8,2.14-3.31,11.92,10.21,13.27,11.5,5.09,4.85,11.44,7.72,18.13,9.42.43.3.85.61,1.27.94a45,45,0,0,1-13.61-5.23c-5.83-3.48-9.07-8.61-13.63-13.41-1-1-4-4.53-5.07-2.36-.74,1.43,2,5.94,2.6,6.91a37.69,37.69,0,0,0,7.21,8.8c6.54,5.72,15.36,5.52,23.63,5.86A.48.48,0,0,1,114.5,370.87Z" style="fill:#fff"></path><path d="M119.19,377.18c-.09.36-.15.72-.23,1.08,0,0,0,0,0,0a.25.25,0,0,1-.17.19.4.4,0,0,1-.49-.19.35.35,0,0,1,0-.23s0-.09,0-.14.07-.21.1-.32l0,0s0-.07,0-.1c-1.66-6.18-2.3-12.61-4-18.79-1.67-5.9-3.74-11.69-4.93-17.71-.76-3.8-3.4-22.85,5-20.48,3.72,1.06,6.27,6.44,7.68,9.67a39.11,39.11,0,0,1,3.1,13.69C125.8,355.47,121.54,366,119.19,377.18Z" style="fill:#37474f"></path><path d="M121.87,353.46a45.37,45.37,0,0,0-1.34-12.93c-.38-1.46-2.2-8.47-4.58-8.29-1.53.1-1.79,3.12-1.92,4.12-.54,4.24.84,8.57,1.66,12.7a174.45,174.45,0,0,1,3.09,25.44c-.08.54-.16,1.09-.22,1.63s-.12.89-.17,1.34c0,.16,0,.31-.06.46s0,.24,0,.37a.4.4,0,0,0,.5.18c0-.34.1-.69.14-1,0,.29,0,.57,0,.86,0,0,0,0,0,0,.06-.31.12-.6.18-.89,0-.07,0-.13,0-.2,0-.48,0-.95,0-1.42C120.22,368.34,121.69,361,121.87,353.46ZM119,372.69c-.23-5-.73-10-1.44-14.92-.56-4-1.31-7.95-2.15-11.88a40.54,40.54,0,0,1-1.07-6.75c-.08-1.74.17-8.16,3.48-4.18,2.39,2.89,3,9,3.26,12.59a65,65,0,0,1-.23,11.83C120.44,363.84,119.7,368.26,119,372.69Z" style="fill:#fff"></path><path d="M124.21,402.81h0a2.53,2.53,0,0,1-.35,0c-8.53-.43-19.91.37-27-5.28-5.25-4.18-10.4-12.42-8.74-19.42,1.88-7.88,12.53,1.58,15.35,3.86,7.18,5.83,20.93,20.08,20.93,20.36l.1.15s0,0,0,0S124.41,402.76,124.21,402.81Z" style="fill:#37474f"></path><path d="M124.51,402.56c-.49-.31-1-.61-1.48-.93-5.61-3.53-11.09-7.31-16.34-11.35-1.33-1-10.94-9.57-12.39-6.51-.87,1.85,2.3,5.61,3.31,6.89a26.54,26.54,0,0,0,6.49,5.79c5.69,3.55,12.59,4.31,19,6,.31.06.61.15.92.23a.65.65,0,0,0,.15.1h0C124.41,402.76,124.58,402.69,124.51,402.56Zm-16.89-4.87a26.1,26.1,0,0,1-7.37-5c-1.44-1.36-6.49-6.47-5.14-8.57.71-1.11,1.3-.52,2.66.15a17,17,0,0,1,1.81,1c1.44.94,2.75,2,4.08,3.1,2.35,1.88,4.72,3.69,7.15,5.46,4,2.89,8,5.61,12.22,8.2C117.91,400.52,112.49,399.89,107.62,397.69Z" style="fill:#fff"></path><path d="M139.81,385.22a50.45,50.45,0,0,1-14.63,25.55.59.59,0,0,1-.16.1.39.39,0,0,1-.44-.17.36.36,0,0,1,0-.49c.15-.13.29-.29.44-.43,1.41-11.61,3-23.15,4.16-34.79.28-2.74,2.43-20.2,7.8-17.36,3.31,1.76,3.53,8.91,3.81,12.12A50.88,50.88,0,0,1,139.81,385.22Z" style="fill:#37474f"></path><path d="M136.71,369.65c-.29-1-.79-2-1.88-1.28-2.08,1.3-2.91,9.51-3.26,11.78-1.43,9.36-3.65,18.37-5.9,27.53L125.1,410l-.52.7a.4.4,0,0,0,.44.16,2.17,2.17,0,0,1,.07-.24c.23-.3.48-.62.69-.94h0a59.67,59.67,0,0,0,8.46-16.47,57.07,57.07,0,0,0,2.49-11.48C137.13,378.14,137.8,373.17,136.71,369.65Zm-11,39.41c-.1.16-.21.3-.31.46.1-.32.2-.62.28-.94A167.7,167.7,0,0,0,131,387.27c.62-3.66,1-7.35,1.77-11,.31-1.53,1.07-5.92,2.34-6.63s1.25,1,1.38,2c.08.71.08,2,.1,2.66A58.9,58.9,0,0,1,125.75,409.06Z" style="fill:#fff"></path><path d="M126.59,435.81h-1.7c0-1.51-.06-3-.11-4.5-.2-6.07-.45-12.14-.81-18.2-.2-3.46-.45-6.89-.81-10.29,0-.12,0-.23,0-.35,0-.27-.07-.55-.1-.84s-.07-.59-.11-.9a73.38,73.38,0,0,0-5.87-22.29c-1.08-2.36-2.27-4.66-3.51-6.95l-.37-.65a.5.5,0,0,0-.1-.17c-.11-.23-.24-.45-.37-.68l-.29-.51c-4-7-8.47-13.59-12.76-20.28-1.23-1.91-2.46-3.84-3.66-5.76a3.37,3.37,0,0,1-.22-.35,4.32,4.32,0,0,1-.27-.42c-5.38-8.49-10.68-17.06-16.27-25.4-.22-.31.29-.58.49-.28,3.78,5.53,7.69,11,11.57,16.45.52.72,1,1.46,1.55,2.18,1,1.45,2,2.88,3,4.33,2,2.9,4,5.79,6,8.73,5.5,8.24,11.25,16.55,15.72,25.43.33.67.65,1.33,1,2,.2.42.4.83.58,1.25s.45,1,.66,1.47c3.8,8.7,5.14,17.66,5.75,26.89,0,.64.09,1.29.12,1.94,0,.29,0,.59,0,.9s0,.32,0,.48,0,.4,0,.62h0c0,.15,0,.31,0,.47,0,.55,0,1.1.07,1.66.25,6.07.4,12.13.53,18.18C126.45,431.93,126.52,433.87,126.59,435.81Z" style="fill:#37474f"></path><path d="M75.63,325.93c-4.68-6.28-10.67-19.25-3.78-26a7.35,7.35,0,0,1,9.77-.72c3.64,2.64,5.27,7.61,6.45,11.73,3.15,11,5.25,22.2,9.19,33,.07.07.33.92.43,1.16s-.28.32-.36.1l-.39-1.06C89.49,338.72,81.17,333.39,75.63,325.93Z" style="fill:#37474f"></path><path d="M97.32,344l-.11-.19a75.89,75.89,0,0,1-4.37-8.14,154.77,154.77,0,0,1-6.72-18c-.75-2.36-4.11-13.92-8.24-9.31-1.73,1.94-1.49,5.37-1.21,7.74a29,29,0,0,0,3.59,10.83c3.7,6.67,9.46,11.72,15.51,16.21.28.22.55.42.83.62.06.11.12.19.17.29a2,2,0,0,0,.12.19.21.21,0,0,0,.1.09.26.26,0,0,0,.36-.16A.15.15,0,0,0,97.32,344Zm-1.82-1.28c-4.88-3.85-9.64-8.05-13.16-13.2a32.71,32.71,0,0,1-4.28-8.74,26.73,26.73,0,0,1-.93-4.24,19.57,19.57,0,0,1-.19-3.25c.07-2.37,1.06-5,2.46-5.21,1.74-.32,2.32.7,3.46,2.7a17.48,17.48,0,0,1,1,2.08,56.42,56.42,0,0,1,1.94,5.47c1,3.06,2,6.1,3,9.11q1.11,3.06,2.41,6.05a81.39,81.39,0,0,0,5.12,10Z" style="fill:#fff"></path><path d="M386.76,343.5c-.77,6.24-2,12.4-3.22,18.55-.71,3.49-1.47,7-2.17,10.47-.78,3.84-1.92,7.76-.88,11.64h0a2,2,0,0,1,0,.53.16.16,0,0,1,0,.07.47.47,0,0,1-.81-.14l-.06-.26-.07-.08a15.92,15.92,0,0,1-1.34-3.23,81.86,81.86,0,0,1-3.1-9,78.63,78.63,0,0,1-3-19.22,65.88,65.88,0,0,1,1.81-17.31c1.12-4.53,2.7-11.28,6.07-14.74,3.06-3.13,5.6,1.89,6.48,4.42C388.45,331,387.49,337.61,386.76,343.5Z" style="fill:#37474f"></path><path d="M381.18,330.28c-2.27,0-3.92,7.34-4.73,10.51a63,63,0,0,0-1.94,15.29,81.77,81.77,0,0,0,4.7,27.15c.12.35.24.71.37,1.06,0,0,0,.06.05.09s.05.16.08.24a.47.47,0,0,0,.81.15c-.15-.77-.26-1.52-.35-2.29s-.16-1.38-.2-2.06c-.63-7.45.45-15.08,1.39-22.48C382.46,349.26,384.19,330.3,381.18,330.28Zm-1.63,51.61c.11,1,.27,2,.46,3-.23-.72-.46-1.44-.68-2.17a90.87,90.87,0,0,1-4.29-24,65.53,65.53,0,0,1,1-13.69,59.88,59.88,0,0,1,1.77-7.16c.32-1,2-7.13,3.37-6.82,1,.21,1.22,5.74,1.23,5.86.06,1.1.06,2.22,0,3.33,0,2.29-.19,4.57-.38,6.85-.43,4.93-1.14,9.85-1.74,14.78C379.55,368.45,378.78,375.29,379.55,381.89Z" style="fill:#fff"></path><path d="M422.54,360.71c-4.17,8.14-11.19,14.37-18.45,19.71-3.89,2.86-7.91,5.54-11.86,8.3-3.32,2.32-7.32,4.77-10.25,7.89a5.23,5.23,0,0,0-.39.42,16.71,16.71,0,0,0-2.13,2.93.27.27,0,0,1-.19.13,2.67,2.67,0,0,1-.14.36.08.08,0,0,1-.16,0c0-.13,0-.27,0-.4v0a.25.25,0,0,1,0-.31l.07-.13c0-.13,0-.27.06-.4,1.18-9.51,7.84-19.12,13.46-26.45s12.57-13.79,21.25-17.14c2.19-.84,7.15-3.16,9.37-1.38C425.24,355.78,423.43,359,422.54,360.71Z" style="fill:#37474f"></path><path d="M416.1,360.75c-2-2-7.82,2.91-9.28,4.06a95.64,95.64,0,0,0-12.07,11.74c-6.17,6.84-11.67,14-15.42,22.3v0c-.07.08-.13.17-.2.26a3,3,0,0,0-.06.4.56.56,0,0,0-.07.13.24.24,0,0,0,0,.32,3.11,3.11,0,0,1,.29-.33c.72-.9,1.49-1.77,2.27-2.62l.39-.42c5.44-5.86,11.87-10.8,18-15.94A90.22,90.22,0,0,0,412,369C413,367.89,417.76,362.42,416.1,360.75Zm-1.83,4.36c-4.92,8.16-13.44,14.13-20.68,20.08a98.11,98.11,0,0,0-13.74,13c3.63-7.37,8.86-14,14.26-20.06a121.26,121.26,0,0,1,9.8-10.09,50.73,50.73,0,0,1,5.95-4.77,20.16,20.16,0,0,1,4-2.17C416.65,360.33,415.11,363.71,414.27,365.11Z" style="fill:#fff"></path><path d="M378.14,419.34a.52.52,0,0,1-.42.24.76.76,0,0,0,.11.14.16.16,0,0,1,0,.21.13.13,0,0,1-.2,0c-7.72-7.85-15.15-17.38-19-27.78a43,43,0,0,1-2.75-13.68c-.09-3.2-.26-9.65,2.48-12,5.51-4.69,10.54,15.2,11.28,18.2,1.37,5.47,2.27,11,3.53,16.53,1.38,6,3.2,11.91,5,17.8A.39.39,0,0,1,378.14,419.34Z" style="fill:#37474f"></path><path d="M378.14,419.33q-.45-.75-.87-1.53a93,93,0,0,1-9.93-26.72c-1-4.65-1.88-9.48-3.66-13.91-.45-1.1-1.82-5.34-3.65-3.2-.94,1.11-.16,9.15.22,11.22a59.07,59.07,0,0,0,4.47,13.66,96.71,96.71,0,0,0,12.64,20.53l.44.55a.14.14,0,0,0,0-.2c0-.05-.07-.09-.1-.15A.48.48,0,0,0,378.14,419.33ZM367,402.24A68.06,68.06,0,0,1,361.66,389a45.5,45.5,0,0,1-1.16-5.57,30.37,30.37,0,0,1-.38-4.45c0-3.63.32-4.57.93-4.7.37-.07.89.32,2,2.49a23.77,23.77,0,0,1,1.54,4.41c.57,2.15,1.06,4.3,1.52,6.47.95,4.33,1.83,8.69,3.09,12.93a71.53,71.53,0,0,0,7.66,17.38A109.7,109.7,0,0,1,367,402.24Z" style="fill:#fff"></path><path d="M402.87,400.27a27.07,27.07,0,0,1-5.06,10.51c-4.57,6.32-10.42,11.58-15.42,17.55-.75.89-1.48,1.8-2.18,2.74-.07.1-.65,1.42-.64,1.31s.09-.53.25-1.38h0c.8-4.19,3.43-16.83,6.71-23.3a56,56,0,0,1,7.3-11.42c1.42-1.61,4.75-5.07,7.25-4.32C403.79,392.78,403.26,398.26,402.87,400.27Z" style="fill:#37474f"></path><path d="M398.8,397.71c-2.68-1.67-9.58,10.67-10.51,12.26a78.32,78.32,0,0,0-7.87,18.8c-.22.74-.41,1.48-.6,2.23s-.26,1.35-.26,1.38.58-1.2.65-1.32.25-.32.36-.48c.6-.77,1.21-1.52,1.81-2.24,3-4.49,6.08-8.93,9-13.49A72.58,72.58,0,0,0,397,404.6C397.29,403.79,400,398.43,398.8,397.71Zm-.77,3.47c-3.81,10.73-11.58,19.18-17.51,28.71l-.29.46.24-.84a89.15,89.15,0,0,1,6.3-15.66,86,86,0,0,1,5.3-8.83,43.68,43.68,0,0,1,3.3-4.59c.55-.61,2.13-2.22,2.66-1.94C398.8,398.87,398.28,400.47,398,401.18Z" style="fill:#fff"></path><path d="M429.76,311.73c-8,18.28-28.84,26.8-37.89,44.42l0,.09c-.28.54-.54,1.08-.79,1.64a.38.38,0,0,1-.61.09.26.26,0,0,1,0-.3,3.62,3.62,0,0,1,.19-.4c1.41-11,5.92-22.3,11.17-32,4.57-8.42,10.83-16.31,19.51-20.74,2.13-1.1,6.3-3.42,8.69-1.6C432.5,304.85,430.74,309.48,429.76,311.73Z" style="fill:#37474f"></path><path d="M422.6,312.52c-1-.75-2.55.16-3.42.61a31.14,31.14,0,0,0-6,4.12,50.56,50.56,0,0,0-9.62,11.45,103.72,103.72,0,0,0-11.35,23q-.92,2.75-1.58,5.57c-.06.23-.1.46-.16.69a.38.38,0,0,0,.61-.08c.23-.55.49-1.06.75-1.6l.08-.14a60.86,60.86,0,0,1,5.67-10.42c3.49-5.08,7.82-9.56,11.91-14.13C411.07,329.8,426.1,315.08,422.6,312.52Zm-1.28,4.23c-2.41,4.3-6.16,7.8-9.44,11.45s-6.64,7.34-9.88,11.07a69.46,69.46,0,0,0-7,9.51,53.76,53.76,0,0,0-4.36,8.8,74.67,74.67,0,0,1,3.11-9.15.33.33,0,0,1,.06-.1A137,137,0,0,1,401.56,333l.11-.19a62.74,62.74,0,0,1,8.8-12.29,36.25,36.25,0,0,1,6.26-5.33c2.62-1.69,4.91-2.79,5.56-1.95C422.73,313.78,422.05,315.49,421.32,316.75Z" style="fill:#fff"></path><path d="M402,333.16c-2.39,5.16-4.68,10.38-6.93,15.62-1.08,2.46-2.13,4.92-3.17,7.37l-.08.14c-.37.89-.76,1.78-1.14,2.67-3.45,8-7.24,16.22-9.34,24.72a74.67,74.67,0,0,0-1.91,13.74c0,.48,0,.95-.07,1.43v0c0,.26,0,.52,0,.78a3.1,3.1,0,0,0,0,.43c-.14,4-.09,8,0,11.94.1,5.46.56,10.88,1.08,16.27a2.61,2.61,0,0,0,.05.48c0,.25,0,.49.05.74s0,.25,0,.38,0,.46.05.69c.18,1.74.34,3.48.48,5.23h-1.66a108,108,0,0,1-2-16.1,1.88,1.88,0,0,1,0-.33c0-.52-.07-1.06-.09-1.58s-.07-1.29-.08-1.94c-.06-1.56-.1-3.11-.13-4.65C376.9,402.3,377,393,379,384.26c.06-.25.11-.48.17-.72s0-.21.07-.31.08-.34.12-.52l.22-.82q.19-.75.42-1.47c0-.14.08-.29.13-.43,2.28-7.63,5.9-15,9.19-22.19.61-1.32,1.21-2.62,1.84-3.92.34-.73.69-1.45,1-2.17.53-1.09,1.08-2.19,1.62-3.28a.33.33,0,0,1,.06-.1c2.55-5.14,5.2-10.22,7.71-15.37C401.68,332.73,402.08,332.92,402,333.16Z" style="fill:#37474f"></path></g><g id="freepik--snowball-globe--inject-95"><circle cx="250" cy="219.61" r="156.52" style="fill:#dbdbdb"></circle><path d="M406.52,219.61a156.41,156.41,0,1,1-11.84-59.92A156.74,156.74,0,0,1,406.52,219.61Zm0,0a156.2,156.2,0,1,0-11.95,59.88A156.62,156.62,0,0,0,406.52,219.61Z" style="fill:#c7c7c7"></path><circle cx="250" cy="219.61" r="148.94" style="fill:#fff;opacity:0.4"></circle><g style="opacity:0.30000000000000004"><path d="M327.48,319.27h0a111.94,111.94,0,0,1-158.3,0h0a111.94,111.94,0,0,1,0-158.3h0a111.94,111.94,0,0,1,158.3,0h0A111.94,111.94,0,0,1,327.48,319.27Z" style="fill:#fff"></path><path d="M339,314a107.55,107.55,0,0,0,15.73-21.11c1-1.93,2.15-3.83,3.06-5.83.47-1,1-2,1.41-3l1.28-3,.64-1.52.57-1.54,1.13-3.09,1-3.13.49-1.57c.17-.52.28-1.06.43-1.58l.83-3.18c.26-1.06.46-2.14.69-3.21.5-2.13.79-4.3,1.15-6.46.18-1.08.26-2.17.4-3.26l.18-1.63.09-.81,0-.82c.14-2.19.32-4.37.31-6.56a108.14,108.14,0,0,0-.54-13.1c-.29-2.17-.48-4.35-.9-6.5-.2-1.08-.37-2.16-.58-3.24l-.71-3.2c-.12-.54-.23-1.07-.36-1.6l-.43-1.59-.87-3.17-1-3.13-.51-1.56-.58-1.54L360.8,201c-.41-1-.87-2-1.3-3-.83-2-1.87-4-2.83-5.95a107.76,107.76,0,0,0-14.95-21.71c-.73-.83-1.51-1.62-2.26-2.43s-1.52-1.63-2.27-2.37l-4.5-4.56-9-9.15-1.13-1.14-1.19-1.16-2.4-2.32c-.8-.78-1.66-1.48-2.49-2.23l-1.27-1.1c-.41-.37-.84-.74-1.28-1.07-1.76-1.38-3.48-2.82-5.33-4.08-.92-.65-1.82-1.31-2.75-1.94L303,135a105.06,105.06,0,0,0-48.31-15.76,106.12,106.12,0,0,0-49.61,8.37,103.52,103.52,0,0,0-22,12.8c-.84.65-1.72,1.26-2.53,2l-2.46,2-1.23,1-1.17,1.09-2.35,2.18c-.41.37-.77.72-1.13,1.07l-1.09,1.06L169,152.94l-4.37,4.25-4.38,4.26L158,163.59c-.37.36-.73.69-1.11,1.08l-1.13,1.16-2.28,2.33c-.74.8-1.44,1.62-2.16,2.44l-1.08,1.22c-.37.41-.72.82-1.06,1.25l-2,2.56c-.33.43-.69.85-1,1.3l-1,1.33-1.92,2.67c-.61.92-1.19,1.85-1.79,2.77s-1.21,1.84-1.74,2.81c-1.1,1.91-2.24,3.81-3.21,5.81-.49,1-1,2-1.49,3s-.92,2-1.37,3.05a105.14,105.14,0,0,0-8.83,42.31,106.3,106.3,0,0,0,19,60.66l1.54,2.18c.5.74,1.08,1.41,1.62,2.12,1.09,1.4,2.17,2.82,3.36,4.14s2.31,2.7,3.56,4l1.84,1.91.92.94.89.88,14.17,13.95.44.44.48.45,1,.91,1.93,1.8c.63.62,1.32,1.17,2,1.74l2,1.71c2.74,2.22,5.57,4.33,8.5,6.27a106.72,106.72,0,0,0,38.72,15.9,108.4,108.4,0,0,0,41.71,0,107.78,107.78,0,0,0,54.91-29.18l14.23-14.1a6.14,6.14,0,0,0,1.5-1.85c-.1-.1-.88.52-1.83,1.46l-11.8,11.65L324.07,330l-.74.73-.79.75-3.17,3-3.31,2.81-.83.7-.87.66-1.72,1.32A107.35,107.35,0,0,1,298,349.26a111,111,0,0,1-16,6.78c-1.38.43-2.75.91-4.14,1.3l-4.19,1.12c-1.41.33-2.83.63-4.25.94-.7.17-1.42.29-2.13.41l-2.14.36a111.84,111.84,0,0,1-17.35,1.39,110.07,110.07,0,0,1-34.54-5.67,106.77,106.77,0,0,1-22.27-10.58l-1.31-.8-1.27-.87-2.54-1.73c-.43-.29-.84-.59-1.24-.9l-1.22-.93L181,338.21l-2.34-2-1.17-1-.59-.5-.56-.52-2.23-2.09-1.12-1-1-1L163.74,322l-4.11-4.06-2-2c-.69-.69-1.41-1.45-2.11-2.17a104.33,104.33,0,0,1-24.67-41.58l-.47-1.45c-.14-.49-.27-1-.41-1.47l-.79-2.95c-.28-1-.45-2-.68-3s-.45-2-.64-3a107.56,107.56,0,0,1-1.56-12.13,104.34,104.34,0,0,1,1.07-24.51,107.3,107.3,0,0,1,6.77-23.76,109.12,109.12,0,0,1,13-22.68l2-2.55c.67-.85,1.33-1.71,2.06-2.5,1.43-1.62,2.81-3.28,4.34-4.79l2.25-2.31,2.19-2.15,4.38-4.28,8.73-8.54c.72-.71,1.54-1.45,2.31-2.17s1.55-1.47,2.35-2.16l2.44-2.06,1.22-1c.41-.34.85-.65,1.27-1a105.52,105.52,0,0,1,21.77-13,107,107,0,0,1,24.22-7.42,108.29,108.29,0,0,1,25.31-1.4c2.11.2,4.24.3,6.34.62l3.16.43,3.14.56,1.57.29c.52.1,1,.24,1.56.35l3.11.72c1,.25,2.06.57,3.09.85s2.06.56,3.07.92c2,.69,4.06,1.33,6,2.15,1,.4,2,.76,3,1.19l2.94,1.32c.49.22,1,.43,1.46.67l1.44.73,2.87,1.46c.95.53,1.88,1.07,2.81,1.61s1.88,1.06,2.78,1.66c1.26.82,2.55,1.61,3.79,2.46l3.66,2.62c1.19.91,2.35,1.85,3.53,2.77.29.24.59.46.87.7l.84.74,1.69,1.47c.55.49,1.13,1,1.66,1.48l1.6,1.54c1.07,1,2.15,2.06,3.14,3.08q3,3.06,6.05,6.11l6,6.08c2,2,4,4.13,6,6.26a108.45,108.45,0,0,1,10.57,14,105,105,0,0,1,15.83,67.47,102.55,102.55,0,0,1-3.29,17.28,108.25,108.25,0,0,1-6.09,16.37l-1,2c-.31.66-.62,1.32-1,2l-2.08,3.83L352,297.22c-.37.63-.79,1.22-1.19,1.82l-1.22,1.81a111.22,111.22,0,0,1-11,13.52c-.21.24-.28.36-.17.3A4.92,4.92,0,0,0,339,314Z" style="fill:#fff"></path><path d="M336.64,311.68a104.56,104.56,0,0,0,15.22-20.44c1-1.88,2.08-3.71,2.95-5.65.46-1,.93-1.91,1.37-2.87l1.24-2.93.62-1.47.54-1.5,1.1-3,.95-3,.47-1.51c.16-.51.28-1,.42-1.54l.8-3.07c.25-1,.44-2.08.67-3.11.48-2.06.76-4.17,1.11-6.25.17-1,.25-2.11.38-3.16l.18-1.58.08-.78.06-.8c.13-2.11.3-4.22.3-6.34a105.54,105.54,0,0,0-.53-12.69c-.28-2.09-.47-4.21-.88-6.29-.18-1-.35-2.09-.55-3.13l-.69-3.1c-.12-.52-.22-1-.35-1.55l-.42-1.54-.84-3.06-1-3-.49-1.51-.56-1.49-1.13-3c-.4-1-.84-1.95-1.26-2.93-.81-2-1.81-3.84-2.74-5.75a104.42,104.42,0,0,0-14.47-21c-.7-.8-1.46-1.57-2.18-2.35s-1.46-1.57-2.22-2.32l-4.51-4.56-9-9.15c-1.48-1.54-3.07-3-4.61-4.52-.77-.75-1.61-1.43-2.42-2.15L313,146.48c-.4-.36-.81-.71-1.24-1-1.7-1.33-3.36-2.73-5.16-3.95-.88-.62-1.75-1.27-2.65-1.88l-2.75-1.76a102.43,102.43,0,0,0-94.79-7.18,100.51,100.51,0,0,0-21.28,12.38c-.81.63-1.66,1.22-2.45,1.89l-2.38,2-1.19,1L178,149l-2.28,2.12c-2.94,2.82-5.82,5.65-8.75,8.49q-2.19,2.11-4.38,4.26c-1.46,1.43-2.92,2.8-4.39,4.33l-2.2,2.26c-.72.77-1.4,1.57-2.1,2.36L152.85,174c-.35.39-.7.79-1,1.21l-2,2.48c-.32.42-.67.82-1,1.25l-.92,1.3-1.86,2.58c-.59.89-1.16,1.79-1.74,2.68s-1.17,1.79-1.69,2.72c-1.06,1.85-2.16,3.69-3.1,5.63-.48,1-1,1.9-1.45,2.88l-1.33,2.94a102,102,0,0,0-8.56,41,102.79,102.79,0,0,0,18.42,58.76l1.49,2.11c.49.71,1.05,1.37,1.57,2.06,1.07,1.35,2.11,2.72,3.26,4s2.23,2.62,3.45,3.84,2.39,2.51,3.57,3.64l14.17,14A106.9,106.9,0,0,0,190,341.93a103.56,103.56,0,0,0,37.51,15.38A104.37,104.37,0,0,0,321.07,329l14.22-14.09c.89-.89,1.57-1.72,1.49-1.85s-.87.52-1.82,1.46l-11.8,11.65c-1.93,1.94-4,3.86-6.05,5.78l-3.21,2.72-.8.68-.84.64-1.67,1.28a103,103,0,0,1-14.15,9A107.12,107.12,0,0,1,281,352.85c-1.34.41-2.66.88-4,1.25l-4.06,1.09c-1.36.32-2.74.6-4.11.91-.68.16-1.37.28-2.06.39l-2.08.35a104.91,104.91,0,0,1-50.24-4.13,104.27,104.27,0,0,1-21.57-10.23l-1.27-.78-1.23-.84-2.45-1.68c-.42-.27-.81-.57-1.21-.87l-1.18-.9-2.36-1.8-2.27-1.92-1.13-1-.57-.47-.54-.51-2.17-2-1.08-1-1-1-8.25-8.13L162,315.52l-2-2c-.68-.68-1.36-1.41-2.05-2.11A101,101,0,0,1,134,271.12l-.45-1.41c-.14-.47-.26-.95-.39-1.43l-.77-2.85c-.28-.95-.44-1.93-.67-2.89s-.43-1.92-.61-2.89a103.3,103.3,0,0,1-1.51-11.76,101,101,0,0,1,1-23.73,103.41,103.41,0,0,1,6.56-23,106,106,0,0,1,12.59-22l1.95-2.46c.65-.82,1.29-1.65,2-2.43,1.39-1.56,2.73-3.17,4.22-4.63l2.17-2.24,2.19-2.15L166.7,161l8.73-8.54c.73-.71,1.5-1.41,2.25-2.11s1.5-1.42,2.28-2.1l2.37-2,1.18-1c.4-.32.82-.62,1.22-.94a101.38,101.38,0,0,1,44.53-19.79,104.65,104.65,0,0,1,24.5-1.34c2.05.19,4.1.29,6.14.6l3.06.41,3,.55,1.52.28c.5.1,1,.23,1.5.34l3,.7c1,.24,2,.55,3,.82s2,.54,3,.89c2,.67,3.94,1.29,5.85,2.08,1,.39,1.94.74,2.89,1.16l2.84,1.27L291,133l1.39.71,2.78,1.42c.91.5,1.81,1,2.72,1.55s1.81,1,2.68,1.61c1.22.8,2.47,1.56,3.67,2.39l3.54,2.53c1.15.88,2.28,1.79,3.41,2.68.28.23.57.44.85.68l.81.71,1.63,1.42c4.3,3.83,8.23,8,12.28,12.06s8.12,8,11.95,12.21a105.67,105.67,0,0,1,10.24,13.51,102,102,0,0,1,12.15,82,104.9,104.9,0,0,1-5.9,15.84l-.91,1.9c-.3.64-.6,1.28-.95,1.89l-2,3.71-2.18,3.6c-.35.61-.76,1.19-1.15,1.77l-1.18,1.75A107.49,107.49,0,0,1,336.17,312c-.2.23-.27.36-.16.29A4.35,4.35,0,0,0,336.64,311.68Z" style="fill:#fff"></path><path d="M334.24,309.32A101.23,101.23,0,0,0,349,289.54c1-1.81,2-3.58,2.85-5.45.44-.93.9-1.85,1.32-2.78l1.2-2.84.6-1.42.52-1.44,1.06-2.89.92-2.93.46-1.47c.15-.49.26-1,.39-1.48l.78-3c.25-1,.43-2,.65-3,.46-2,.73-4,1.06-6.05.18-1,.25-2,.38-3.05l.17-1.52.08-.76.05-.77c.13-2,.3-4.09.29-6.13a102.6,102.6,0,0,0-.51-12.27c-.28-2-.46-4.07-.85-6.08-.18-1-.34-2-.54-3l-.66-3c-.12-.5-.22-1-.34-1.5l-.41-1.48-.81-3-.95-2.92-.47-1.46-.55-1.44-1.09-2.88c-.38-1-.81-1.89-1.22-2.83-.77-1.9-1.75-3.71-2.64-5.56a101.32,101.32,0,0,0-14-20.31c-.69-.78-1.41-1.51-2.12-2.27s-1.39-1.51-2.16-2.27l-4.51-4.55-9-9.15-1.13-1.15-1.12-1.09-2.25-2.18c-.75-.73-1.56-1.39-2.34-2.08l-1.18-1c-.39-.35-.78-.69-1.2-1-1.65-1.29-3.25-2.64-5-3.82-.85-.6-1.69-1.23-2.56-1.82l-2.65-1.7A98.18,98.18,0,0,0,254.27,126a99.3,99.3,0,0,0-46.46,7.79,96.79,96.79,0,0,0-20.58,12c-.79.61-1.62,1.18-2.38,1.82l-2.3,1.93-1.15,1-1.1,1-2.21,2c-2.92,2.8-5.82,5.65-8.74,8.48L165,166.22c-1.45,1.42-2.95,2.83-4.35,4.29l-2.13,2.18c-.69.75-1.35,1.52-2,2.28l-1,1.15c-.34.38-.67.77-1,1.17l-1.92,2.4c-.31.41-.65.8-.95,1.21l-.89,1.25-1.8,2.5c-.57.86-1.12,1.73-1.68,2.6s-1.14,1.72-1.64,2.63c-1,1.79-2.1,3.57-3,5.43-.47.93-1,1.84-1.41,2.79L139.89,201a98.38,98.38,0,0,0-8.3,39.67A99.7,99.7,0,0,0,139.68,280a98.54,98.54,0,0,0,9.74,17.52l1.44,2c.47.69,1,1.32,1.52,2,1,1.31,2,2.64,3.15,3.88s2.16,2.53,3.34,3.71,2.3,2.41,3.49,3.56l14.17,14a103.32,103.32,0,0,0,15.35,12.51A100.11,100.11,0,0,0,228.17,354a100.95,100.95,0,0,0,90.53-27.4q7.08-7,14.21-14.08c.89-.89,1.57-1.73,1.49-1.85s-.88.52-1.82,1.46l-11.8,11.65c-2,2-3.95,3.8-5.93,5.66l-3.1,2.63-.78.66-.81.62-1.61,1.23a100.34,100.34,0,0,1-13.69,8.72,103.83,103.83,0,0,1-14.94,6.34c-1.29.4-2.57.85-3.88,1.22l-3.92,1.05-4,.88c-.66.15-1.33.27-2,.38l-2,.34a105.05,105.05,0,0,1-16.25,1.3,103.61,103.61,0,0,1-32.36-5.29,99.65,99.65,0,0,1-38.78-24.22l-8.24-8.12-4.11-4.05-2.06-2c-.68-.68-1.32-1.37-2-2.06a97.4,97.4,0,0,1-23.12-38.94l-.44-1.36c-.14-.46-.25-.92-.38-1.38l-.75-2.76c-.26-.92-.42-1.86-.64-2.79s-.41-1.87-.59-2.8A101.15,101.15,0,0,1,133,247.64a97.63,97.63,0,0,1,1-23,100.05,100.05,0,0,1,6.35-22.26,103.16,103.16,0,0,1,12.18-21.23l1.89-2.38c.63-.8,1.25-1.6,1.93-2.35,1.34-1.51,2.64-3.07,4.08-4.48l2.1-2.17,2.2-2.15,4.37-4.28,8.73-8.54c.73-.71,1.47-1.37,2.2-2.05s1.45-1.38,2.2-2l2.29-1.92,1.14-1c.39-.32.79-.6,1.19-.91a97.83,97.83,0,0,1,43-19.12,101.1,101.1,0,0,1,23.7-1.29c2,.19,4,.28,5.94.59l3,.39,2.94.54,1.47.27c.49.09,1,.22,1.46.33l2.91.68c1,.23,1.93.53,2.89.79s1.93.52,2.87.86c1.89.65,3.8,1.25,5.65,2,.93.37,1.88.71,2.8,1.11l2.74,1.24,1.37.62,1.34.69,2.69,1.37c.88.49,1.75,1,2.62,1.51s1.76,1,2.6,1.55c1.18.78,2.38,1.51,3.54,2.31l3.42,2.45c1.11.85,2.2,1.73,3.3,2.59.27.22.55.43.82.66l.78.69,1.58,1.37c.51.47,1.06.9,1.56,1.39l1.49,1.45c1,1,2,1.91,3,3q3,3.06,6.05,6.11t6,6.07c2.06,2,3.91,4,5.79,6a101.73,101.73,0,0,1,9.89,13,98.39,98.39,0,0,1,14.83,63.1,95.55,95.55,0,0,1-3.07,16.17,100.53,100.53,0,0,1-5.69,15.32l-.88,1.84c-.29.61-.58,1.23-.92,1.82l-1.93,3.58-2.12,3.49c-.33.59-.72,1.14-1.1,1.71L344.07,297a106.47,106.47,0,0,1-10.29,12.67c-.19.22-.26.35-.15.28A4.09,4.09,0,0,0,334.24,309.32Z" style="fill:#fff"></path><path d="M331.84,307c1.34-1.48,2.75-2.89,4-4.45l1.92-2.3,1.79-2.38c1.24-1.56,2.29-3.25,3.42-4.88.57-.82,1-1.69,1.57-2.53l.77-1.27c.26-.42.52-.85.75-1.29.93-1.75,1.93-3.46,2.75-5.27.42-.9.87-1.78,1.28-2.68l1.15-2.74.57-1.37.51-1.4,1-2.78.89-2.84.44-1.41c.15-.47.25-1,.38-1.44l.75-2.87c.24-1,.41-1.93.62-2.9.45-1.93.71-3.89,1-5.84.17-1,.24-2,.36-2.94l.17-1.48.08-.73,0-.74c.13-2,.29-3.95.28-5.93a97.52,97.52,0,0,0-.49-11.84c-.27-2-.44-3.94-.83-5.88-.17-1-.32-2-.51-2.92l-.65-2.9c-.11-.48-.21-1-.32-1.44l-.4-1.44-.78-2.86-.92-2.82L353,209l-.52-1.39-1.05-2.77c-.38-.92-.79-1.82-1.18-2.73-.75-1.84-1.69-3.59-2.55-5.37a98,98,0,0,0-13.5-19.61c-.66-.75-1.36-1.46-2-2.2l-1-1.09-.52-.55-.56-.57-4.51-4.55-9-9.15-1.13-1.15-1.09-1.06-2.17-2.1c-.72-.71-1.51-1.34-2.26-2l-1.14-1c-.37-.33-.76-.66-1.16-1-1.59-1.24-3.14-2.55-4.81-3.69-.83-.58-1.64-1.19-2.48-1.75l-2.56-1.65a94.9,94.9,0,0,0-43.65-14.29,96,96,0,0,0-44.89,7.51,93.71,93.71,0,0,0-19.88,11.55c-.77.59-1.57,1.14-2.3,1.76L184.77,152l-1.11.93-1.07,1-2.13,2c-2.89,2.76-5.81,5.64-8.72,8.46l-4.38,4.26c-1.45,1.42-3,2.86-4.31,4.25L161,175c-.67.72-1.31,1.47-2,2.2l-1,1.11c-.34.37-.66.74-1,1.13l-1.85,2.32c-.3.39-.63.77-.92,1.17l-.86,1.21-1.74,2.41L150.08,189c-.53.84-1.1,1.66-1.58,2.54-1,1.73-2,3.45-2.91,5.25-.45.9-.93,1.78-1.35,2.69L143,202.26a95.38,95.38,0,0,0-8,38.35,96.48,96.48,0,0,0,7.83,38,95.48,95.48,0,0,0,9.41,16.93l1.39,2c.46.67,1,1.28,1.47,1.92,1,1.27,2,2.56,3.06,3.75s2.08,2.45,3.23,3.59,2.19,2.31,3.4,3.48l14.17,14a99.86,99.86,0,0,0,14.86,12.1,96.74,96.74,0,0,0,35.07,14.36,97.63,97.63,0,0,0,87.49-26.49l14.19-14.07c.89-.9,1.58-1.73,1.5-1.86s-.88.52-1.82,1.46L318.39,321.4l-1.47,1.46-.73.72-.72.68L312.6,327l-3,2.54-.75.64-.78.59-1.56,1.2a96.54,96.54,0,0,1-13.22,8.41,99.51,99.51,0,0,1-14.43,6.13c-1.25.38-2.48.82-3.74,1.17l-3.8,1-3.84.84c-.63.16-1.28.27-1.93.37l-1.94.33a98.38,98.38,0,0,1-47-3.84,96.87,96.87,0,0,1-20.15-9.55l-1.18-.72-1.15-.79-2.3-1.56c-.39-.26-.76-.54-1.12-.82l-1.11-.84-2.21-1.68-2.12-1.79-1.06-.9-.53-.44-.51-.48-2-1.89-1-.95-1-1-8.24-8.12-4.11-4.06-2.06-2c-.67-.68-1.28-1.33-1.93-2a94.11,94.11,0,0,1-22.35-37.62l-.42-1.32c-.13-.44-.25-.89-.37-1.33l-.72-2.67c-.26-.89-.41-1.8-.62-2.7s-.4-1.8-.58-2.71a98.53,98.53,0,0,1-1.4-11,93.77,93.77,0,0,1,1-22.19,96.54,96.54,0,0,1,6.14-21.51,98.79,98.79,0,0,1,11.78-20.5l1.82-2.31c.61-.76,1.2-1.54,1.87-2.26,1.3-1.46,2.55-3,3.94-4.33l2-2.1,2.19-2.14,4.37-4.29,8.74-8.54c.72-.71,1.42-1.33,2.13-2s1.4-1.33,2.13-2l2.21-1.86,1.11-.92c.37-.31.76-.59,1.14-.88a96,96,0,0,1,19.7-11.78,95,95,0,0,1,44.78-7.91c1.91.19,3.83.28,5.73.58l2.86.38,2.84.52,1.42.26c.47.09.94.21,1.41.32l2.81.65c.94.23,1.85.52,2.78.77s1.87.5,2.78.83c1.82.63,3.67,1.2,5.45,2,.9.37,1.81.69,2.7,1.08l2.65,1.2c.44.2.88.39,1.32.6l1.29.66,2.6,1.33c.85.47,1.68,1,2.53,1.45s1.69.95,2.5,1.5c1.14.75,2.3,1.46,3.42,2.23l3.3,2.36L307,151.1c.27.21.54.42.79.63l.76.67,1.52,1.33c.5.45,1,.87,1.51,1.34l1.44,1.4,1.45,1.39c.24.23.49.48.74.74l.76.77q3,3.06,6.05,6.11l6,6.07,1.51,1.52.74.75.69.72c.9,1,1.83,1.91,2.72,2.89a98,98,0,0,1,9.55,12.6,95.34,95.34,0,0,1,11.38,76.53,98.21,98.21,0,0,1-5.49,14.79l-.85,1.78c-.28.59-.56,1.18-.88,1.75l-1.87,3.47-2,3.36c-.33.57-.7,1.11-1.07,1.65l-1.1,1.64a101,101,0,0,1-9.93,12.24c-.18.22-.25.35-.14.28A4,4,0,0,0,331.84,307Z" style="fill:#fff"></path></g><path d="M120.77,285.84c1,1,12.56,1.44,16.76,1.44s15.77-.44,16.76-1.44S141.28,208,137.53,208,119.78,284.85,120.77,285.84Z" style="fill:#dbdbdb"></path><path d="M120.54,266.26c2.86,1.09,13.44,5.4,15.72,6.65,0-.48,0-1,0-1.44q-3.83-2.25-7.67-4.48a88.93,88.93,0,0,1-8.26-4.91c-.13-.09-.06-.35.11-.27a67.59,67.59,0,0,1,8.08,4.46c2.6,1.53,5.18,3.1,7.74,4.68,0-3.68,0-7.36,0-11.05a86.45,86.45,0,0,1-12.06-6.13c-.13-.08-.05-.32.11-.26a89.56,89.56,0,0,1,11.95,5.9c0-1.92,0-3.83,0-5.75.11-9.86.13-19.73.38-29.59-2.51-1.27-5.09-2.39-7.6-3.66-.17-.08,0-.37.13-.3,2.54,1,5,2.17,7.49,3.27.13-5.09.33-10.18.64-15.26a.13.13,0,0,1,.26,0c.35,9.45.32,18.91.21,28.36,2.59-2.07,5.37-3.91,8-5.92.1-.08.2.09.1.17-2.76,2.11-5.35,4.44-8.12,6.54,0,.53,0,1.06,0,1.6,2.81-1.29,5.67-2.49,8.52-3.71.23-.1.42.22.2.33-2.9,1.4-5.8,2.81-8.74,4.13-.06,4.68-.14,9.36-.2,14-.11,8.18-.29,16.36-.46,24.53q8-4,16.08-7.85a.18.18,0,0,1,.18.31,170.67,170.67,0,0,1-16.28,8.17c-.14,6.79-.28,13.59-.37,20.38a.32.32,0,0,1-.64,0c.1-8.66.11-17.33.13-26-2.8-.7-13.4-5.24-15.92-6.48C120.08,266.6,120.26,266.15,120.54,266.26Z" style="fill:#c7c7c7"></path><path d="M197.25,296.43c-.71.72-9.07,1-12.11,1s-11.39-.32-12.11-1,9.4-56.26,12.11-56.26S198,295.71,197.25,296.43Z" style="fill:#c7c7c7"></path><path d="M197.42,282.28c-2.06.78-9.71,3.9-11.36,4.81,0-.35,0-.7,0-1l5.55-3.23a66.1,66.1,0,0,0,6-3.55c.09-.07,0-.25-.08-.2a49.45,49.45,0,0,0-5.84,3.22c-1.88,1.11-3.74,2.24-5.6,3.39,0-2.66,0-5.33,0-8a63.19,63.19,0,0,0,8.72-4.43c.09-.05,0-.23-.08-.18a63,63,0,0,0-8.64,4.26l0-4.16c-.08-7.12-.09-14.26-.27-21.38,1.81-.92,3.68-1.73,5.49-2.65.12-.06,0-.26-.09-.21-1.84.71-3.61,1.57-5.42,2.36-.1-3.68-.24-7.35-.46-11a.1.1,0,0,0-.19,0c-.26,6.83-.23,13.66-.15,20.5-1.88-1.5-3.88-2.83-5.79-4.28-.08-.06-.15.07-.07.12,2,1.52,3.86,3.21,5.87,4.72,0,.39,0,.78,0,1.16-2-.93-4.1-1.8-6.16-2.68-.16-.07-.3.16-.14.24,2.1,1,4.19,2,6.31,3,0,3.39.11,6.77.15,10.15.08,5.91.21,11.82.33,17.73q-5.76-2.92-11.62-5.68a.13.13,0,0,0-.13.23,121.82,121.82,0,0,0,11.76,5.9c.11,4.91.21,9.82.27,14.73a.24.24,0,0,0,.47,0c-.07-6.26-.08-12.52-.1-18.78a114.53,114.53,0,0,0,11.51-4.68C197.75,282.53,197.62,282.2,197.42,282.28Z" style="fill:#dbdbdb"></path><path d="M375.93,289.63c-.72.72-9.08,1-12.12,1s-11.39-.32-12.11-1,9.4-56.25,12.11-56.25S376.64,288.92,375.93,289.63Z" style="fill:#c7c7c7"></path><path d="M376.09,275.48c-2.06.79-9.71,3.9-11.36,4.81v-1c1.84-1.09,3.69-2.16,5.54-3.24a66.1,66.1,0,0,0,6-3.55c.09-.06,0-.25-.08-.2a48.89,48.89,0,0,0-5.84,3.23c-1.88,1.1-3.74,2.24-5.6,3.38q0-4,0-8a64.32,64.32,0,0,0,8.72-4.43c.09-.06,0-.23-.08-.19a64.12,64.12,0,0,0-8.64,4.26l0-4.15c-.08-7.13-.09-14.26-.27-21.39,1.81-.92,3.68-1.72,5.49-2.64.12-.06,0-.27-.09-.22-1.84.72-3.61,1.57-5.42,2.36-.1-3.67-.24-7.35-.46-11a.1.1,0,0,0-.19,0c-.25,6.82-.23,13.66-.15,20.49-1.88-1.5-3.88-2.82-5.79-4.28-.07-.06-.15.07-.07.13,2,1.52,3.87,3.2,5.87,4.72,0,.38,0,.77,0,1.16-2-.94-4.1-1.8-6.16-2.68-.16-.07-.3.16-.14.24,2.1,1,4.19,2,6.31,3,0,3.38.11,6.77.15,10.15.08,5.91.21,11.82.33,17.72-3.84-1.94-7.72-3.84-11.61-5.67-.15-.07-.28.14-.14.22a121.9,121.9,0,0,0,11.76,5.91c.11,4.91.21,9.82.27,14.73a.24.24,0,0,0,.47,0c-.07-6.26-.08-12.53-.1-18.79a114.53,114.53,0,0,0,11.51-4.68C376.43,275.73,376.29,275.4,376.09,275.48Z" style="fill:#dbdbdb"></path><path d="M299.84,287.65c-.86.86-10.9,1.24-14.55,1.24s-13.69-.38-14.55-1.24,11.29-67.59,14.55-67.59S300.7,286.78,299.84,287.65Z" style="fill:#dbdbdb"></path><path d="M300,270.64c-2.48.95-11.67,4.69-13.65,5.78,0-.42,0-.83,0-1.25,2.22-1.31,4.44-2.6,6.66-3.89a80.71,80.71,0,0,0,7.18-4.26c.1-.08,0-.31-.11-.24a59.85,59.85,0,0,0-7,3.87c-2.26,1.33-4.49,2.69-6.72,4.07q0-4.8,0-9.59a76.3,76.3,0,0,0,10.47-5.33c.11-.06,0-.28-.09-.22a75.17,75.17,0,0,0-10.38,5.12c0-1.67,0-3.33,0-5-.09-8.56-.11-17.13-.33-25.7,2.18-1.09,4.43-2.06,6.6-3.17a.14.14,0,0,0-.11-.26c-2.21.86-4.33,1.88-6.5,2.84-.12-4.42-.29-8.84-.56-13.25a.12.12,0,0,0-.23,0c-.3,8.2-.28,16.41-.17,24.62-2.26-1.8-4.67-3.39-7-5.14-.09-.07-.18.08-.09.15,2.4,1.83,4.65,3.85,7.06,5.67,0,.47,0,.93,0,1.39-2.44-1.12-4.93-2.16-7.4-3.22-.19-.08-.37.2-.17.29,2.52,1.21,5,2.44,7.58,3.58.06,4.07.13,8.13.18,12.2.09,7.1.25,14.19.4,21.29q-6.93-3.5-14-6.82c-.18-.08-.33.17-.15.27a145.56,145.56,0,0,0,14.12,7.1q.19,8.85.33,17.69a.28.28,0,0,0,.55,0c-.08-7.52-.09-15-.11-22.57,2.43-.6,11.64-4.54,13.82-5.62C300.44,270.94,300.28,270.55,300,270.64Z" style="fill:#c7c7c7"></path><path d="M383.56,285.62a149,149,0,0,1-268.09-2c19.58,4.59,45.24,8.78,62.67,8.78,29.44,0,69.19-9.15,98.23-8.8s60.45,9.21,77.53,8.8C363.63,292.15,374.09,289.35,383.56,285.62Z" style="fill:#fff"></path><rect x="121.16" y="342.32" width="257.67" height="9.94" style="fill:#FFC727"></rect><rect x="117.25" y="425.96" width="265.5" height="9.94" style="fill:#FFC727"></rect><polygon points="375.52 425.96 124.48 425.96 134.48 352.26 365.52 352.26 375.52 425.96" style="fill:#FFC727"></polygon><polygon points="365.88 354.94 133.61 358.65 134.48 352.26 365.52 352.26 365.88 354.94" style="opacity:0.1"></polygon><polygon points="375.52 425.96 124.48 425.96 125 422.13 374.48 418.29 375.52 425.96" style="opacity:0.1"></polygon><path d="M254.17,403a6.91,6.91,0,0,1,1.8,4.66,7.07,7.07,0,0,1-1.93,4.83,7,7,0,0,1-5,2.15,7.26,7.26,0,0,1-2.82-.61,7.59,7.59,0,0,1-2.35-1.71,7.09,7.09,0,0,1-1.77-5.37A7,7,0,0,1,254.17,403Zm0,0a6.07,6.07,0,0,0-4.47-2,5.91,5.91,0,0,0-4.32,1.89,6,6,0,0,0-1.6,4.14,6,6,0,0,0,5.31,5.88,6,6,0,0,0,4.28-1.17,5.9,5.9,0,0,0,2.32-4.1A6.08,6.08,0,0,0,254.17,403Z" style="opacity:0.1"></path><path d="M153.54,380.49a2.19,2.19,0,1,1,0,4.37,2.19,2.19,0,0,1,0-4.37Z" style="fill:#fff"></path><path d="M167,379a5,5,0,0,1,5.12-5.29,12.13,12.13,0,0,1,4.09.71,16.28,16.28,0,0,0,5.7.87l1,13.16.48-.68c6.41-8.82,10-13.13,12.48-13.13v.48a3.68,3.68,0,0,0-1.93.83c-.38,1.22-1.58,5.14-2.77,8.95-.95,2.94-1.15,5.36-.34,6.45a2.52,2.52,0,0,0,1.82-.82l.32.41a3.08,3.08,0,0,1-2.22.93c-3.43,0-4.07-3.12-2.85-7.12l1.1-3.61c-1.51,1.9-3.22,4.19-5.19,6.92-1,1.3-2,2.73-3.12,4.27l-.44-.12-1-11.8-1.95,3.56c-3.7,7-5.48,8.58-9.6,8.58a6,6,0,0,1-4.36-1.88,5.59,5.59,0,0,1-1.32-4.48l.49.05a5.11,5.11,0,0,0,1.19,4.09,5.48,5.48,0,0,0,4,1.73c3.87,0,5.56-1.56,9.16-8.31l4.39-8a17.34,17.34,0,0,1-5.27-.87,11.29,11.29,0,0,0-3.94-.71,4.51,4.51,0,0,0-4.63,4.8Z" style="fill:#fff"></path><path d="M203.89,381.47c0,2.07-2.07,3.12-5.58,3.14,0,.44-.05.9-.05,1.39,0,1.56.83,2.15,1.78,2.15,2.58,0,3.46-2.83,3.46-2.86l.44.2a4.3,4.3,0,0,1-4.44,3.22c-2.68,0-4-1.39-4-3.51,0-3.93,2.12-6.19,5.28-6.19C203,379,203.89,380,203.89,381.47Zm-5.51,2.58c3.63,0,4.9-1.05,4.9-2.58a1.7,1.7,0,0,0-1.78-1.85C200.23,379.62,198.8,380.93,198.38,384.05Z" style="fill:#fff"></path><path d="M205.35,379.89a2.33,2.33,0,0,1,1.83-.88c1.51,0,2.34.78,2.34,2.14v.15c.75-1.59,1.63-2.29,2.85-2.29s1.88.58,1.88,1.95c0,1.92-2.15,3.34-2.15,4.87h-.58c0-1.75,2.09-3.12,2.09-4.78,0-1.29-.58-1.48-1.24-1.48-2,0-3.17,3.8-3.24,4v0l-.88,4.85h-2.92l1.61-9a1.73,1.73,0,0,0-1.22.68Z" style="fill:#fff"></path><path d="M214.91,379.89a2.31,2.31,0,0,1,1.82-.88c1.51,0,2.34.78,2.34,2.14v.15c.76-1.59,1.64-2.29,2.85-2.29s1.88.58,1.88,1.95c0,1.92-2.14,3.34-2.14,4.87h-.59c0-1.75,2.1-3.12,2.1-4.78,0-1.29-.59-1.48-1.25-1.48-2,0-3.16,3.8-3.24,4v0l-.87,4.85h-2.93l1.61-9a1.75,1.75,0,0,0-1.22.68Z" style="fill:#fff"></path><path d="M225.82,379.5a2,2,0,0,0-1.21.68l-.37-.29a2.19,2.19,0,0,1,2-.88c1.46,0,2.21.7,2.21,2,0,1.65-.92,4-.92,5.41,0,.78.32,1.17,1,1.17,1.08,0,2.17-1.59,2.83-4l.8-4.31a16.19,16.19,0,0,0,2.95-.22l-1.53,8.62c-.59,3.29-2.73,5.34-6.17,5.34-2.07,0-3.21-.75-3.21-2,0-.85.53-1.73,2.12-1.73,1.39,0,1.73.51,2.75.66l-.05.44c-1-.1-1.39-.63-2.7-.63-1.12,0-1.61.56-1.61,1.21,0,1.08,1.14,1.56,2.46,1.56,2.05,0,2.8-1.39,3.12-3l.61-3.36a3.25,3.25,0,0,1-3.1,2.24,2.74,2.74,0,0,1-2.95-3.07C224.87,383.71,225.73,381.59,225.82,379.5Z" style="fill:#fff"></path><path d="M247.32,390a9.43,9.43,0,0,0,1.22.07c4.63,0,5.7-3.61,5.7-3.61l.49.2s-1,3.9-6.19,3.9c-4.1,0-6.46-2.46-6.46-6.8,0-5.8,4.09-10.11,10.33-10.11,2.9,0,4,1,4,3.16a5,5,0,0,1-1.07,2.71,4.67,4.67,0,0,0-1,2.44h-.53a5.17,5.17,0,0,1,1.07-2.73,4.26,4.26,0,0,0,1-2.37c0-1.14-.29-2.7-3.49-2.7a13.4,13.4,0,0,0-1.46.1c-2.56.78-6,3.26-6,10.91C245,388.22,246.25,389.46,247.32,390Z" style="fill:#fff"></path><path d="M266.11,388.22a2,2,0,0,0,1.22-.68l.36.29a2.18,2.18,0,0,1-2,.88c-1.47,0-2.22-.71-2.22-2,0-1.66.88-4.49.88-5.92,0-.78-.34-1.05-1-1.05-1.12,0-2.2,1.61-2.85,4.17l-.81,4.58h-2.92l2.7-15.31a1.82,1.82,0,0,0-1.22.69l-.36-.3a2.32,2.32,0,0,1,1.83-.87c1.51,0,2.34.78,2.34,2.14,0,.2,0,.41,0,.63l-1,5.78A3.23,3.23,0,0,1,264,379a2.81,2.81,0,0,1,3,3.07C267.08,383.61,266.21,386.12,266.11,388.22Z" style="fill:#fff"></path><path d="M269,379.89a2.31,2.31,0,0,1,1.83-.88c1.51,0,2.34.78,2.34,2.14v.15c.75-1.59,1.63-2.29,2.85-2.29s1.87.58,1.87,1.95c0,1.92-2.14,3.34-2.14,4.87h-.59c0-1.75,2.1-3.12,2.1-4.78,0-1.29-.59-1.48-1.24-1.48-2,0-3.17,3.8-3.24,4v0l-.88,4.85H269l1.61-9a1.75,1.75,0,0,0-1.22.68Z" style="fill:#fff"></path><path d="M281.32,388.22a1.78,1.78,0,0,0,1.22-.68l.36.29a2.31,2.31,0,0,1-1.82.88c-1.51,0-2.34-.86-2.34-2a18.46,18.46,0,0,1,.39-2.65l.8-4.36h-1l0-.44h1a17.18,17.18,0,0,0,3-.22Zm.68-14.57a1.78,1.78,0,0,1,1.78,1.78,1.76,1.76,0,0,1-1.78,1.75,1.75,1.75,0,0,1-1.75-1.75A1.76,1.76,0,0,1,282,373.65Z" style="fill:#fff"></path><path d="M289,384.52a22.4,22.4,0,0,0-.56-3.56,6.24,6.24,0,0,1-3.34,1.85v-.59a6.87,6.87,0,0,0,3.29-2v-.1a4,4,0,0,1,.68-2.24h.58c0,3.21,2.2,3.58,2.2,6.8,0,2.29-1.93,4-4.61,4-2.34,0-3.53-1.39-3.53-2.83a1.75,1.75,0,0,1,1.8-1.95,1.62,1.62,0,0,1,1.68,1.68,1.68,1.68,0,0,1-1.65,1.78,1.93,1.93,0,0,1-.66-.1,2,2,0,0,0,1.7.78C288.29,388.07,289,386.85,289,384.52Z" style="fill:#fff"></path><path d="M297.55,379.23h3l-.05.44h-3a76.33,76.33,0,0,0-1.22,7.57.71.71,0,0,0,.76.78c1.31,0,2.24-2,2.55-3.31l.44.15c-.48,2.07-1.51,3.85-3.73,3.85a2.46,2.46,0,0,1-2.73-2.42,53.27,53.27,0,0,1,1-6.62h-1.19l.05-.44h1.24c.2-1.15.44-2.34.66-3.61a17.18,17.18,0,0,0,3-.22Z" style="fill:#fff"></path><path d="M316.41,388.22a2,2,0,0,0,1.22-.68l.37.29a2.21,2.21,0,0,1-2.05.88c-1.46,0-2.22-.71-2.22-2,0-1.66.88-4.49.88-5.92,0-.78-.34-1.05-1-1.05-1.12,0-1.95,1.61-2.61,4.19a29.34,29.34,0,0,0-.73,4.29,2,2,0,0,0,1.22-.68l.37.29a2.21,2.21,0,0,1-2.05.88c-1.46,0-2.22-.71-2.22-2,0-1.66.88-4.49.88-5.92,0-.78-.34-1.05-1-1.05-1.07,0-1.9,1.49-2.53,3.87l-.88,4.88h-2.93l1.61-9a1.77,1.77,0,0,0-1.22.68l-.36-.29A2.33,2.33,0,0,1,303,379c1.51,0,2.34.78,2.34,2.14v.08A3,3,0,0,1,308.2,379a2.77,2.77,0,0,1,3,2.82c.54-1.55,1.34-2.82,3.12-2.82a2.81,2.81,0,0,1,3.05,3.07C317.39,383.61,316.51,386.12,316.41,388.22Z" style="fill:#fff"></path><path d="M328,388.22a1.78,1.78,0,0,0,1.22-.68l.37.29a2.34,2.34,0,0,1-1.83.88,2,2,0,0,1-2.34-1.88,3.25,3.25,0,0,1-2.73,1.88c-2.1,0-3.53-1.32-3.53-3.76,0-3.8,2.07-5.94,4.89-5.94a2.31,2.31,0,0,1,2.37,1.68c.07-.46.14-.88.27-1.46a17.12,17.12,0,0,0,3-.22Zm-2.46-2.8c.1-.47.27-1.49.63-3.51-.09-1.17-.68-2.29-1.6-2.29-1.73,0-2.66,3.87-2.66,6.58,0,1.56.44,1.95,1.1,1.95C324.38,388.15,325.33,386,325.53,385.42Z" style="fill:#fff"></path><path d="M335.65,384.52a21.24,21.24,0,0,0-.57-3.56,6.16,6.16,0,0,1-3.33,1.85v-.59a6.87,6.87,0,0,0,3.29-2v-.1a4,4,0,0,1,.68-2.24h.58c0,3.21,2.2,3.58,2.2,6.8,0,2.29-1.93,4-4.61,4-2.34,0-3.53-1.39-3.53-2.83a1.75,1.75,0,0,1,1.8-1.95,1.62,1.62,0,0,1,1.68,1.68,1.68,1.68,0,0,1-1.65,1.78,1.89,1.89,0,0,1-.66-.1,2,2,0,0,0,1.7.78C334.94,388.07,335.65,386.85,335.65,384.52Z" style="fill:#fff"></path><path d="M348.44,380.49a2.19,2.19,0,1,1,0,4.37,2.19,2.19,0,0,1,0-4.37Z" style="fill:#fff"></path><ellipse cx="180.5" cy="128.3" rx="49.73" ry="22.62" transform="translate(-40.79 136.7) rotate(-37.58)" style="fill:#fff;opacity:0.5"></ellipse><circle cx="239.89" cy="93.22" r="9.94" transform="translate(4.34 196.93) rotate(-45)" style="fill:#fff;opacity:0.5"></circle></g><g id="freepik--Trees--inject-95"><path d="M346.79,272.67c-1.67,1.67-21.05,2.41-28.1,2.41s-26.44-.74-28.1-2.41,21.81-130.51,28.1-130.51S348.45,271,346.79,272.67Z" style="fill:#455a64"></path><path d="M347.18,239.84c-4.79,1.83-22.53,9-26.37,11.16,0-.81,0-1.62,0-2.42,4.28-2.52,8.58-5,12.87-7.51,4.61-2.68,9.55-5.07,13.85-8.23.21-.16.09-.59-.2-.47-4.73,2-9.13,4.9-13.55,7.49s-8.67,5.19-13,7.85q0-9.27-.08-18.53a146.51,146.51,0,0,0,20.22-10.27c.22-.14.08-.54-.18-.44a148.43,148.43,0,0,0-20,9.88c0-3.21,0-6.42-.07-9.63-.18-16.53-.21-33.08-.63-49.62,4.2-2.12,8.54-4,12.74-6.13.28-.14.08-.62-.21-.5-4.27,1.66-8.38,3.64-12.57,5.48-.22-8.53-.55-17.06-1.07-25.58a.22.22,0,0,0-.44,0c-.59,15.84-.54,31.69-.34,47.54-4.36-3.47-9-6.55-13.44-9.93-.17-.13-.34.16-.17.29,4.64,3.53,9,7.44,13.62,11,0,.89,0,1.79,0,2.69-4.73-2.16-9.52-4.17-14.3-6.22-.37-.16-.7.38-.32.56,4.86,2.33,9.71,4.71,14.64,6.91.11,7.85.24,15.7.34,23.55.18,13.71.48,27.42.78,41.12q-13.38-6.76-27-13.16c-.35-.16-.65.32-.3.52a282.56,282.56,0,0,0,27.28,13.7c.24,11.39.48,22.78.62,34.17a.54.54,0,0,0,1.08,0c-.16-14.53-.19-29.05-.23-43.58,4.71-1.16,22.48-8.77,26.7-10.86C348,240.42,347.64,239.66,347.18,239.84Z" style="fill:#37474f"></path><path d="M307.41,178.38c2.79,3.19,6.33.71,7.72-2.47s4.41-6,6.29-5,3.36,5.49,7.72,4.7-.41-8.21-1.42-11.15,2.18-2.68,0-8.24a69.22,69.22,0,0,0-6.53-12.08c-1.71-2.78-3.1-4-5.71,1.85s-4,16.71-5.14,18.65S305.07,175.71,307.41,178.38Z" style="fill:#fff"></path><path d="M332.27,279c1.2,1.2,15.21,1.74,20.31,1.74s19.1-.54,20.3-1.74-15.76-94.32-20.3-94.32S331.07,277.83,332.27,279Z" style="fill:#37474f"></path><path d="M332,255.3c3.46,1.32,16.28,6.54,19.05,8.06,0-.58,0-1.16,0-1.75-3.09-1.82-6.2-3.62-9.3-5.42a111.77,111.77,0,0,1-10-5.95c-.15-.11-.07-.42.14-.34a83.3,83.3,0,0,1,9.79,5.41c3.16,1.85,6.27,3.76,9.38,5.68q0-6.71.06-13.39a106.77,106.77,0,0,1-14.62-7.43c-.15-.09-.05-.39.14-.31A107.46,107.46,0,0,1,351.11,247c0-2.32,0-4.64.05-7,.13-11.95.15-23.91.46-35.86-3-1.53-6.17-2.89-9.21-4.43-.2-.1-.06-.45.15-.36,3.08,1.2,6.05,2.63,9.08,4,.17-6.17.4-12.33.78-18.49a.16.16,0,0,1,.31,0c.43,11.45.39,22.91.25,34.36,3.15-2.51,6.51-4.74,9.71-7.17.13-.1.25.11.13.2-3.35,2.55-6.49,5.38-9.85,7.92l0,1.94c3.42-1.56,6.88-3,10.34-4.49.27-.12.51.27.23.4-3.51,1.69-7,3.41-10.58,5-.08,5.67-.18,11.35-.25,17-.13,9.91-.35,19.81-.56,29.72q9.67-4.89,19.48-9.52c.25-.11.47.24.22.38a203.86,203.86,0,0,1-19.71,9.9c-.18,8.23-.35,16.46-.45,24.69a.39.39,0,0,1-.78,0c.11-10.49.13-21,.16-31.49-3.4-.84-16.24-6.34-19.29-7.85C331.43,255.72,331.65,255.17,332,255.3Z" style="fill:#455a64"></path><path d="M347.38,199c2.68,2,4.77-.42,6.24.39s1.69,7.43,5.79,5.64c2.62-1.15-2.2-8.17-2.36-12.49-.1-2.61-1.35-8.82-4.47-8.65s-3,6.69-3.78,8.24S345.23,197.4,347.38,199Z" style="fill:#fff"></path><path d="M208.51,274.44c-1.53,1.54-19.42,2.22-25.93,2.22s-24.4-.68-25.93-2.22S176.78,154,182.58,154,210.05,272.91,208.51,274.44Z" style="fill:#37474f"></path><path d="M208.87,244.14c-4.42,1.69-20.79,8.36-24.33,10.3,0-.75,0-1.49,0-2.24q5.92-3.48,11.88-6.93c4.25-2.47,8.81-4.68,12.78-7.59.19-.14.08-.54-.19-.43-4.37,1.82-8.42,4.52-12.5,6.91s-8,4.79-12,7.24q0-8.55-.07-17.09a135.72,135.72,0,0,0,18.66-9.49c.2-.12.06-.49-.17-.4a137.44,137.44,0,0,0-18.5,9.12c0-3,0-5.92-.06-8.89-.17-15.26-.2-30.53-.59-45.79,3.89-2,7.89-3.69,11.77-5.65.25-.13.07-.58-.2-.47-3.94,1.53-7.73,3.36-11.6,5.06-.21-7.88-.51-15.75-1-23.61a.2.2,0,0,0-.4,0c-.55,14.62-.5,29.25-.32,43.88-4-3.21-8.31-6-12.4-9.17-.16-.12-.31.15-.16.27,4.28,3.26,8.29,6.87,12.58,10.11l0,2.48c-4.36-2-8.79-3.85-13.19-5.74-.35-.14-.66.35-.31.52,4.49,2.15,9,4.35,13.52,6.38.1,7.25.22,14.49.32,21.73.16,12.65.44,25.3.71,38q-12.34-6.24-24.88-12.15c-.32-.15-.59.3-.28.48a262.07,262.07,0,0,0,25.18,12.65c.22,10.51.44,21,.58,31.53a.5.5,0,0,0,1,0c-.15-13.41-.17-26.81-.21-40.22,4.34-1.07,20.74-8.09,24.64-10C209.58,244.67,209.3,244,208.87,244.14Z" style="fill:#455a64"></path><path d="M189.21,172.27c-3.41,2.57-6.09-.54-8,.51s-2.16,9.47-7.39,7.19c-3.35-1.46,2.8-10.43,3-15.95.13-3.33,1.73-11.26,5.71-11.05s3.78,8.55,4.82,10.53S192,170.2,189.21,172.27Z" style="fill:#fff"></path><path d="M125,280.81c1.08,1.07,13.58,1.55,18.13,1.55s17.05-.48,18.12-1.55-14.07-84.18-18.12-84.18S123.9,279.74,125,280.81Z" style="fill:#455a64"></path><path d="M124.72,259.63c3.09,1.18,14.54,5.84,17,7.2v-1.56c-2.76-1.63-5.53-3.23-8.3-4.85a97.57,97.57,0,0,1-8.93-5.3c-.13-.1-.06-.38.13-.3a74.4,74.4,0,0,1,8.74,4.82c2.81,1.65,5.59,3.35,8.37,5.07q0-6,0-11.95a95.06,95.06,0,0,1-13-6.63c-.15-.08-.05-.35.11-.28a96.9,96.9,0,0,1,12.93,6.37q0-3.1,0-6.21c.12-10.66.14-21.34.41-32-2.71-1.37-5.51-2.58-8.22-3.95-.18-.09-.05-.4.14-.33,2.75,1.07,5.4,2.35,8.1,3.54.15-5.51.36-11,.69-16.5a.15.15,0,0,1,.29,0c.38,10.21.35,20.44.22,30.66,2.81-2.24,5.81-4.23,8.67-6.4.11-.09.22.1.11.18-3,2.28-5.79,4.8-8.79,7.07,0,.58,0,1.16,0,1.73,3-1.39,6.14-2.69,9.22-4,.24-.1.45.25.21.36-3.14,1.51-6.27,3-9.45,4.46q-.1,7.6-.22,15.19c-.11,8.84-.31,17.68-.5,26.52q8.64-4.36,17.39-8.49a.19.19,0,0,1,.19.34,183,183,0,0,1-17.59,8.84c-.16,7.34-.31,14.69-.4,22a.35.35,0,0,1-.7,0c.11-9.36.12-18.73.15-28.1-3-.75-14.5-5.66-17.22-7C124.23,260,124.43,259.52,124.72,259.63Z" style="fill:#37474f"></path><path d="M137,215.48c2,.83,4-1.89,4.49-4.72s.92-4.53,2-5.1,1.47,1.8,3.62,1.27.69-2.4-.6-5.23-1.51-6.22-3.67-6.22-2.83,7.22-3.87,10S134.28,214.37,137,215.48Z" style="fill:#fff"></path></g><g id="freepik--Snowman--inject-95"><polygon points="280.26 207.84 279.29 207.41 288.7 186.07 303.23 155.81 304.77 143.06 305.81 143.18 304.22 156.18 289.65 186.51 280.26 207.84" style="fill:#263238"></polygon><polygon points="314.82 160.51 303.53 156.44 316.77 146.68 317.39 147.53 305.75 156.11 315.17 159.52 314.82 160.51" style="fill:#263238"></polygon><path d="M304.18,283.7a33.58,33.58,0,0,1-1.58,6.84,30.4,30.4,0,0,1-12.14,15.28,6.49,6.49,0,0,1-3.59,1.1H212.62a6.38,6.38,0,0,1-3.66-1.15c-19.67-13.85-12.89-39.44-11-55.7,2.71-23.2,13.26-65.37,20.11-71.63a21.2,21.2,0,0,1,6.86-3.89,47.72,47.72,0,0,1,6.16-1.88c15.35-3.65,37.62-3,46.63.59,12.27,4.81,20.86,59,26.28,98.8A44.43,44.43,0,0,1,304.18,283.7Z" style="fill:#fff"></path><path d="M304.18,283.7A30.94,30.94,0,0,1,300,296.08a31.49,31.49,0,0,1-9,9.46,6.91,6.91,0,0,1-3,1.36,9.2,9.2,0,0,1-1.65.1h-1.65l-6.58,0-13.15,0-52.64.13a6.67,6.67,0,0,1-3.24-1c-.48-.32-.89-.66-1.35-1a15.73,15.73,0,0,1-1.29-1,28.84,28.84,0,0,1-4.58-4.79,30,30,0,0,1-3.43-5.67,35.74,35.74,0,0,1-2.16-6.27A51.45,51.45,0,0,1,195,274.28a117.76,117.76,0,0,1,1.1-13.15c.58-4.36,1.25-8.68,1.74-13s1.26-8.7,2.05-13q2.39-13,5.71-25.72c1.13-4.24,2.34-8.47,3.69-12.65a111,111,0,0,1,4.65-12.36,24.31,24.31,0,0,1,3.43-5.75,17.49,17.49,0,0,1,5.61-3.68,53.21,53.21,0,0,1,12.74-3.56,118.33,118.33,0,0,1,26.32-1.2A68.66,68.66,0,0,1,275,172.09a14.56,14.56,0,0,1,1.59.48,10.76,10.76,0,0,1,1.57.6l.76.4c.24.16.45.35.67.52a7.88,7.88,0,0,1,1.24,1.14,25.25,25.25,0,0,1,3.67,5.52,82.76,82.76,0,0,1,4.77,12.3c1.3,4.19,2.42,8.44,3.44,12.71,2,8.54,3.7,17.16,5.2,25.8s2.84,17.31,4.08,26l1.81,13A46.84,46.84,0,0,1,304.18,283.7Zm0,0a46.76,46.76,0,0,0-.41-13.1l-1.87-13c-1.29-8.68-2.66-17.34-4.21-26s-3.26-17.23-5.32-25.75c-1-4.26-2.18-8.49-3.5-12.67a82.4,82.4,0,0,0-4.8-12.18,24.71,24.71,0,0,0-3.61-5.38,7.53,7.53,0,0,0-1.18-1.08c-.21-.16-.41-.34-.63-.48l-.7-.36a9,9,0,0,0-1.5-.57,14.61,14.61,0,0,0-1.56-.46A67.84,67.84,0,0,0,262,170.82a116.66,116.66,0,0,0-26.14,1.32,52.29,52.29,0,0,0-12.52,3.55A16.67,16.67,0,0,0,218,179.2a23.66,23.66,0,0,0-3.25,5.52A112.91,112.91,0,0,0,210.18,197c-1.32,4.17-2.5,8.39-3.62,12.62q-3.37,12.69-5.82,25.62c-.8,4.3-1.53,8.62-2.1,13s-1.21,8.7-1.8,13a112,112,0,0,0-1.16,13.05,50.4,50.4,0,0,0,1.22,13,34.22,34.22,0,0,0,2.09,6.17,29.64,29.64,0,0,0,3.33,5.57,28.15,28.15,0,0,0,4.47,4.72,15.85,15.85,0,0,0,1.27,1c.43.31.86.67,1.3,1a6.15,6.15,0,0,0,3,.94l52.62.14,13.15,0,6.58,0h1.65a7.93,7.93,0,0,0,1.62-.09,6.74,6.74,0,0,0,2.95-1.32,31.38,31.38,0,0,0,9.05-9.38A30.79,30.79,0,0,0,304.18,283.7Z" style="fill:#dbdbdb"></path><path d="M277.66,218.93a3.81,3.81,0,0,0-4.25-3.19,3.91,3.91,0,0,0-3.3,4.41,3.85,3.85,0,0,0,4.52,3.17A3.61,3.61,0,0,0,277.66,218.93Z" style="fill:#37474f"></path><path d="M280.14,240.17a3.82,3.82,0,0,0-4.24-3.2,3.92,3.92,0,0,0-3.3,4.42,3.85,3.85,0,0,0,4.52,3.17A3.61,3.61,0,0,0,280.14,240.17Z" style="fill:#37474f"></path><path d="M282.63,261.41a3.82,3.82,0,0,0-4.25-3.2,3.92,3.92,0,0,0-3.3,4.41,3.86,3.86,0,0,0,4.52,3.18A3.61,3.61,0,0,0,282.63,261.41Z" style="fill:#37474f"></path><path d="M202.78,270.78a1.74,1.74,0,1,0-1.45,3.11,1.67,1.67,0,0,0,1.92-.76s0-.09.05-.14a1.76,1.76,0,0,0,.17-.37A1.66,1.66,0,0,0,202.78,270.78Z" style="fill:#dbdbdb"></path><path d="M208.33,273.47a1.17,1.17,0,0,0-1.16,0,1,1,0,0,0-.5,1,1,1,0,0,0,.1.66,1.15,1.15,0,0,0,1.85.2A1.23,1.23,0,0,0,208.33,273.47Z" style="fill:#dbdbdb"></path><path d="M291.67,290.26a1.19,1.19,0,0,0-1.17,0,1.05,1.05,0,0,0-.5,1,1,1,0,0,0,.11.66,1.14,1.14,0,0,0,1.84.19A1.22,1.22,0,0,0,291.67,290.26Z" style="fill:#dbdbdb"></path><path d="M205.5,277.5a.69.69,0,0,0,0,1.37A.69.69,0,0,0,205.5,277.5Z" style="fill:#dbdbdb"></path><path d="M209.92,215.69a.69.69,0,0,0,0,1.38A.69.69,0,0,0,209.92,215.69Z" style="fill:#dbdbdb"></path><polygon points="213.31 212.74 203.01 191.44 197.35 159.16 198.23 145.75 199.28 145.81 198.41 159.1 204.04 191.19 214.26 212.28 213.31 212.74" style="fill:#263238"></polygon><polygon points="184.19 160.98 184.08 159.93 196.25 158.6 186.25 146.81 187.06 146.13 198.35 159.44 184.19 160.98" style="fill:#263238"></polygon><path d="M281.52,168a13.42,13.42,0,0,1-.66,2.78,11.64,11.64,0,0,1-.59,1.36c0,.09-.09.19-.14.28-3.84,7-20.18,10.56-27.69,10.84-18.4.68-29.82-.9-32-5.65a16.46,16.46,0,0,1-.8-5.42c-.21-8.67,2-23.92,5.81-29.73,1.77-2.72,5.43-5.57,9.86-8a55.66,55.66,0,0,1,9.26-4h0c5.47-1.79,11-2.64,15.17-1.78,9.32,1.93,16.38,18.77,18.19,22.26C279.44,153.82,282.43,161.5,281.52,168Z" style="fill:#fff"></path><path d="M281.52,168a11,11,0,0,1-3.48,7,25,25,0,0,1-6.83,4.09,61.86,61.86,0,0,1-15.44,4c-2.65.35-5.32.37-8,.46s-5.33.06-8,0-5.34-.24-8-.58a29.09,29.09,0,0,1-7.84-1.91,8.47,8.47,0,0,1-3.36-2.45c-.19-.31-.39-.62-.56-.95a7.93,7.93,0,0,1-.33-1,18.24,18.24,0,0,1-.33-2,50.45,50.45,0,0,1,0-8.06,88.71,88.71,0,0,1,2.39-15.86,34,34,0,0,1,2.78-7.6,18.59,18.59,0,0,1,5.59-5.91,51.25,51.25,0,0,1,14.38-7.13l-.16.1a.45.45,0,0,1,.29-.12l-.12,0a44.9,44.9,0,0,1,7.69-1.77,22,22,0,0,1,7.89.18,15,15,0,0,1,6.67,4.15,37.51,37.51,0,0,1,4.85,6.18,119,119,0,0,1,7.26,13.89,39.2,39.2,0,0,1,2.3,7.48A24,24,0,0,1,281.52,168Zm0,0a24.22,24.22,0,0,0-.41-7.78,39.53,39.53,0,0,0-2.34-7.45A107.21,107.21,0,0,0,271.38,139a36.64,36.64,0,0,0-4.9-6.05,14.51,14.51,0,0,0-6.52-3.92,21.31,21.31,0,0,0-7.68-.05,44.67,44.67,0,0,0-7.54,1.87l-.11,0a.43.43,0,0,0,.26-.11l-.16.09A53.12,53.12,0,0,0,230.67,138a17.89,17.89,0,0,0-5.27,5.63,33.42,33.42,0,0,0-2.64,7.38,89.1,89.1,0,0,0-2.46,15.66,51,51,0,0,0,0,7.91,7.41,7.41,0,0,0,1,3.57,7.77,7.77,0,0,0,3,2.24,29.14,29.14,0,0,0,7.6,2c2.62.37,5.27.58,7.92.7s5.31.16,8,.12a78.12,78.12,0,0,0,8-.33A58.69,58.69,0,0,0,271.17,179a25,25,0,0,0,6.84-4A11,11,0,0,0,281.52,168Z" style="fill:#dbdbdb"></path><path d="M245.2,155.83c-.78-2.1-2.35-2.8-3.48-2.33-1.38.58-2.09,2.55-1.48,4.44s2.27,2.92,3.66,2.27S246,157.85,245.2,155.83Z" style="fill:#263238"></path><path d="M265.07,150.75c-.78-2.11-2.35-2.81-3.48-2.33-1.39.58-2.1,2.55-1.49,4.44s2.28,2.92,3.66,2.27S265.81,152.76,265.07,150.75Z" style="fill:#263238"></path><path d="M240.24,162.49c0,1.68-2.21,3-5,3s-4.95-1.36-4.95-3,2.21-3,4.95-3S240.24,160.81,240.24,162.49Z" style="fill:#ffc4c0"></path><path d="M276,152.28c.59,1.57-1,3.62-3.58,4.57s-5.11.46-5.7-1.11,1-3.62,3.58-4.57S275.43,150.71,276,152.28Z" style="fill:#ffc4c0"></path><path d="M280.18,143.89l-.2.32a43.28,43.28,0,0,1-6.23,8.13l-.33.3c-.21.18-.41.35-.6.49a90.71,90.71,0,0,1-9.6,6l-.38.2a12.65,12.65,0,0,1-3.73,1.54c-3.63,0-4.38-4.31-3.15-6.25a7.09,7.09,0,0,1,2.71-1.38h0l.56-.21c1.78-.66,4-1.43,6.2-2.31l.39-.16c.51-.21,1-.43,1.5-.65l.33-.16h0a16.61,16.61,0,0,0,1.63-.85,49.4,49.4,0,0,0,5.54-3.91,3.92,3.92,0,0,0,.32-.25c3.29-2.61,6.06-5,6.56-4.52C282,140.45,281.32,142,280.18,143.89Z" style="fill:#FFC727"></path><g style="opacity:0.1;mix-blend-mode:multiply"><path d="M259.23,153a5.22,5.22,0,0,0-1.09,3.43.06.06,0,1,1-.12,0,6.37,6.37,0,0,1,.65-3.21h0Z"></path><path d="M265.62,153c0,.07-.12.09-.13,0a7.66,7.66,0,0,1-.06-2.39l.39-.16A6.63,6.63,0,0,0,265.62,153Z"></path><path d="M267.57,151.34c0,.11-.17.13-.18,0a6.4,6.4,0,0,1-.07-1.51l.33-.16A6.93,6.93,0,0,0,267.57,151.34Z"></path><path d="M263.22,159.08l-.38.2a3.55,3.55,0,0,1-1.37-2.63s0,0,0,0A5.69,5.69,0,0,0,263.22,159.08Z"></path><path d="M271.81,152.12a3.89,3.89,0,0,1-.86-1.78s0,0,0,0a2.92,2.92,0,0,0,.76,1.92C271.75,152.36,271.89,152.22,271.81,152.12Z"></path><path d="M273.75,152.34l-.33.3a4.86,4.86,0,0,1-2.12-3.3c0-.05.07-.09.09,0A8.12,8.12,0,0,0,273.75,152.34Z"></path><path d="M275.91,146.66a4.52,4.52,0,0,1-1.09-1.74,3.92,3.92,0,0,0,.32-.25c.25.65.61,1.26.9,1.89C276.08,146.63,276,146.73,275.91,146.66Z"></path><path d="M277,146.66a5.86,5.86,0,0,1-.7-1.21s-.11,0-.09,0a3.47,3.47,0,0,0,.64,1.29C276.93,146.85,277.07,146.75,277,146.66Z"></path><path d="M280.18,143.89l-.2.32a3.89,3.89,0,0,1-1-1.06s0,0,0,0A6,6,0,0,0,280.18,143.89Z"></path></g><path d="M249.47,160.93a11.72,11.72,0,0,0,1.44,2.95,2.83,2.83,0,0,0,2.51,1.39,5.09,5.09,0,0,0,2.81-1.26,17.12,17.12,0,0,0,2.31-2.35,9.6,9.6,0,0,1-2,2.74,5,5,0,0,1-3.12,1.54,3,3,0,0,1-1.77-.46,4.18,4.18,0,0,1-1.21-1.31A7.9,7.9,0,0,1,249.47,160.93Z" style="fill:#263238"></path><path d="M224,170.1a1.74,1.74,0,1,0-1.45,3.11,1.69,1.69,0,0,0,1.93-.76.65.65,0,0,0,0-.13,1.84,1.84,0,0,0,.17-.38A1.67,1.67,0,0,0,224,170.1Z" style="fill:#dbdbdb"></path><path d="M233.3,139.83a1.22,1.22,0,0,0-1.17,0,1,1,0,0,0-.5,1,1,1,0,0,0,.11.66,1.14,1.14,0,0,0,1.84.2A1.23,1.23,0,0,0,233.3,139.83Z" style="fill:#dbdbdb"></path><path d="M226.67,176.82a.69.69,0,0,0,0,1.37A.69.69,0,0,0,226.67,176.82Z" style="fill:#dbdbdb"></path><path d="M273.91,172a.69.69,0,0,0,0,1.37A.69.69,0,0,0,273.91,172Z" style="fill:#dbdbdb"></path><path d="M271.14,137.69s-19.28-6.09-49.67,10.56c0,0,.52-5.47,2.15-7.58.86-1.11-3.38,6.56-10.25,10.2S199,145.21,199,145.21l1.89-.79s6.18,4.44,9.41,1.84,11.07-19.86,16.16-22.8,21.36-6.33,28.18-3.46S271.14,137.69,271.14,137.69Z" style="fill:#FFC727"></path><path d="M204.61,138c-2.37-4.08-6.68-4.84-9.64-3.33a7.51,7.51,0,0,0-3.42,10,7.39,7.39,0,0,0,10.13,3.12C205.08,145.92,206.87,141.89,204.61,138Z" style="fill:#fff"></path><path d="M204.61,138a7.84,7.84,0,0,0-4.34-3.59,6.63,6.63,0,0,0-5.44.64,7.38,7.38,0,0,0-3.27,4.29,7.08,7.08,0,0,0,9.92,8.27,7.34,7.34,0,0,0,3.74-4.06A6.66,6.66,0,0,0,204.61,138Zm0,0a7.07,7.07,0,0,1,.76,5.59,7.82,7.82,0,0,1-3.64,4.49,7.59,7.59,0,0,1-11-9,8,8,0,0,1,3.87-4.47,7,7,0,0,1,5.74-.33A8.28,8.28,0,0,1,204.61,138Z" style="fill:#dbdbdb"></path><path d="M220.26,146c.83-2.43.86-5,1.66-7.49a12.94,12.94,0,0,1,1.33-4.24c0-.08.18-.06.16,0-.17.67-.32,1.35-.45,2a22,22,0,0,1,2.75-3.35c.07-.08.2,0,.13.1a15.5,15.5,0,0,0-3.63,7.28,41.74,41.74,0,0,1-1.23,6C220.82,146.79,220.1,146.46,220.26,146Z" style="opacity:0.1"></path><path d="M272,139s1.17.3-.09-2.39-4.3-5.7-5-6.47-9.95-3.32-22.2-.27-23.07,11.06-23.87,11.73-1.85,7.43-1.8,8.52,1.65,1.85,1.65,1.85,13.58-10.41,27-12.91C262.73,136.21,272,139,272,139Z" style="fill:#fff"></path><path d="M272,139a.38.38,0,0,0,.44-.24,1.14,1.14,0,0,0,0-.55,5.09,5.09,0,0,0-.33-1.07,12,12,0,0,0-1.06-2,29.53,29.53,0,0,0-2.79-3.5c-.51-.54-1-1.12-1.55-1.6a8.75,8.75,0,0,0-2.09-.72,29.94,29.94,0,0,0-4.41-.68,47.53,47.53,0,0,0-17.62,2.09,74.1,74.1,0,0,0-16.09,7.57c-1.26.77-2.5,1.59-3.72,2.44l-.9.64-.44.33-.21.17-.09.08,0,0a4.17,4.17,0,0,0-.35.86c-.1.33-.19.69-.27,1-.34,1.43-.61,2.89-.81,4.35l-.14,1.1a2.66,2.66,0,0,0,0,.9,2.76,2.76,0,0,0,1.32,1.24l-.51.05a82.63,82.63,0,0,1,11.71-7.16,62.14,62.14,0,0,1,12.78-4.94,72.17,72.17,0,0,1,13.56-1.7A49.09,49.09,0,0,1,272,139Zm0,0a49.47,49.47,0,0,0-13.57-1.09,61.48,61.48,0,0,0-6.78.65,60.24,60.24,0,0,0-6.68,1.33,61.82,61.82,0,0,0-12.53,5.2,97.32,97.32,0,0,0-11.47,7.26l-.25.19-.25-.13a3.54,3.54,0,0,1-1.84-1.8,3.2,3.2,0,0,1-.06-1.32c0-.38.08-.76.13-1.13a42.53,42.53,0,0,1,.8-4.46c.09-.37.18-.74.3-1.12a4.18,4.18,0,0,1,.54-1.19l.15-.18.12-.09.23-.18.46-.34.93-.65q1.86-1.28,3.79-2.44a68.65,68.65,0,0,1,16.41-7.34,47.93,47.93,0,0,1,17.82-1.68,33.15,33.15,0,0,1,4.42.74,8.56,8.56,0,0,1,2.12.77,21.52,21.52,0,0,1,1.55,1.62,29.17,29.17,0,0,1,2.76,3.53,11.74,11.74,0,0,1,1.05,2,5.82,5.82,0,0,1,.32,1.08,1.14,1.14,0,0,1,0,.55A.38.38,0,0,1,272,139Z" style="fill:#dbdbdb"></path><path d="M239.14,202.92q-.79,2.72-1.44,5.36c-.25,1-.49,2-.71,3a179,179,0,0,0-4.13,31.2c0,.76-.07,1.5-.1,2.21s-.06,1.44-.09,2.12c0,.85,0,1.67-.08,2.44,0,.13,0,.26,0,.39,0,.4,0,.78,0,1.15-.19,5.54-.36,8.84-1.42,9.08-3,.68-7-1.08-12.14-1.3s-9.46,1.84-9.46-1.37q0-3.88.19-7.52l.06-1.09a.17.17,0,0,1,0-.07c.06-1.12.14-2.22.23-3.3,0-.36.06-.71.1-1.06.09-1.1.2-2.17.33-3.23a125,125,0,0,1,3.55-18.7c.94-3.47,1.93-6.5,2.89-9.07a64.18,64.18,0,0,1,4.62-10.24Z" style="fill:#FFC727"></path><path d="M239.14,202.92q-.79,2.72-1.44,5.36c-.25,1-.49,2-.71,3a179,179,0,0,0-4.13,31.2c0,.76-.07,1.5-.1,2.21s-.06,1.44-.09,2.12c0,.85,0,1.67-.08,2.44,0,.13,0,.26,0,.39,0,.4,0,.78,0,1.15-.19,5.54-.36,8.84-1.42,9.08-3,.68-7-1.08-12.14-1.3s-9.46,1.84-9.46-1.37q0-3.88.19-7.52l.06-1.09a.17.17,0,0,1,0-.07c.06-1.12.14-2.22.23-3.3,0-.36.06-.71.1-1.06.09-1.1.2-2.17.33-3.23a125,125,0,0,1,3.55-18.7c.94-3.47,1.93-6.5,2.89-9.07a64.18,64.18,0,0,1,4.62-10.24Z" style="opacity:0.2"></path><path d="M230.8,242.6a2.62,2.62,0,0,1,2,2.09c0-.71.07-1.45.1-2.21a3.43,3.43,0,0,0-5.09.07,5.2,5.2,0,0,0,.34,6.3,5.61,5.61,0,0,0,1.86,1.39,13.08,13.08,0,0,1-2.27,1.27c-4.78,2.11-11.16,1.53-15.23-1.9-.18-.16-.37-.32-.54-.49,3.11-1.09,5.62-3.37,4-7.1a3.31,3.31,0,0,0-4.21-1.94,3.8,3.8,0,0,0-1.25.85c-.12,1.06-.24,2.13-.33,3.23a3.1,3.1,0,0,1,.15-.58c.58-1.74,2.52-3.62,4.15-1.77,1.3,1.47.67,4-.64,5.18a5.86,5.86,0,0,1-2.56,1.32,5.33,5.33,0,0,1-1.2-3.09c-.09,1.08-.17,2.18-.23,3.3a.09.09,0,0,0,0,.06h0l-.06,1.09c.26,0,.51-.09.77-.15,3.33,4,10.71,5,15.18,3.92a15.26,15.26,0,0,0,5.47-2.83,6.11,6.11,0,0,0,1.41.17c0-.37,0-.75,0-1.15h-.33c.12-.12.23-.25.34-.38,0-.77.06-1.59.09-2.44,0,.06,0,.11-.05.16a6.18,6.18,0,0,1-1.63,2.41,4.2,4.2,0,0,1-2.61-2.3C227.61,245.29,228.28,242,230.8,242.6Z" style="fill:#37474f"></path><path d="M254.68,217.11c-2.43,18-.68,34.34-.12,43.27,0,.4.05.78.07,1.15.18,3.5.12,5.64-.61,6-3,1.37-7.33-.45-12.6-.23s-16.49,3.44-17.17-1.14q-.51-3.35-.79-6.65c-.06-.66-.11-1.32-.16-2a130.23,130.23,0,0,1,.44-22.61c.3-3,.69-5.88,1.14-8.58a134.32,134.32,0,0,1,5.78-23.39h26.79c-.74,2.81-1.36,5.62-1.86,8.39Q255.05,214.24,254.68,217.11Z" style="fill:#FFC727"></path><path d="M254.56,260.38a13.31,13.31,0,0,1-5.76-.32c-.24-.07-.47-.15-.7-.24,2.41-2.24,3.79-5.34.79-8.1a3.31,3.31,0,0,0-4.63-.08c-1.61,1.62-1.39,4.74-.23,6.55a7.2,7.2,0,0,0,1.92,2c-.51.3-1,.56-1.5.79A16,16,0,0,1,236,262.6a14,14,0,0,1-6-1.85,5.65,5.65,0,0,0,3.35-5.68,3.83,3.83,0,0,0-3.72-3.5c-2.37.07-3.31,2.59-3.36,4.61a6,6,0,0,0,1.34,3.95,5.46,5.46,0,0,1-4.29-2.63c0,.66.1,1.32.16,2a5.68,5.68,0,0,0,5.18,1.71,7.83,7.83,0,0,0,1.19.82c4.34,2.46,9.67,2.28,14.17.45a13.66,13.66,0,0,0,2.94-1.68,12.5,12.5,0,0,0,7.69.75C254.61,261.16,254.59,260.78,254.56,260.38Zm-25.19-.64-.45.17a4.77,4.77,0,0,1-1.43-2.72c-.33-2.05,1-6,3.64-3.91C233.51,255.14,231.63,258.77,229.37,259.74Zm17.75-.37a4.94,4.94,0,0,1-2.77-4c-.17-1.83.85-4.33,3.09-3.29,1.78.83,2.21,3.37,1.49,5A5.92,5.92,0,0,1,247.12,259.37Z" style="fill:#37474f"></path><path d="M293.72,192.54c-1.38,2.89-17.26,20.3-53.29,17.24a55.21,55.21,0,0,1-12.51-2.46,45.11,45.11,0,0,1-6.25-2.55h0c-9.09-4.56-13-10.6-13.06-11.86s1.63-4.38,3.08-6.91c.52-.92,1-1.75,1.35-2.36s.45-.82.52-1c.39-1,.09-7.68.23-9.67s4.58-4.59,5.75-5.12h0a16.66,16.66,0,0,0,.8,5.5c2.17,4.81,17,6,32.71,5.19,12.49-.66,23.86-3.35,27.76-10.46a11.56,11.56,0,0,0,.74-1.65,4.55,4.55,0,0,1,4,.79,4.14,4.14,0,0,1,.86.95c1.92,2.77,1.73,7.85,2.15,10a9.93,9.93,0,0,0,.79,2.2c.34.76.77,1.6,1.23,2.49C292.37,186.44,294.61,190.64,293.72,192.54Z" style="fill:#FFC727"></path><path d="M289.32,180.38c-1,4.47-3.34,9.55-8,10.44,2.14-3.73,2.57-7.85-1.62-10.58-2.62-1.71-6.37-1.05-7.69,1.94-1.41,3.16.2,7.22,2.94,9.11a8.24,8.24,0,0,0,3.26,1.31,18.8,18.8,0,0,1-2.83,2.75c-6.2,5-15.79,6.59-23.09,3.13-.34-.16-.67-.33-1-.52,4.14-2.8,6.94-7.13,3.08-12a5,5,0,0,0-6.93-1.21c-2.8,2.07-3.19,6.8-1.87,9.77a10.72,10.72,0,0,0,2.4,3.44,21.9,21.9,0,0,1-2.43.84,24.29,24.29,0,0,1-13,.48,21.36,21.36,0,0,1-8.62-4.19,8.61,8.61,0,0,0,6.37-7.74c.1-2.84-1.81-5.76-4.77-6.12-3.57-.45-5.58,3.11-6.12,6.14a9.14,9.14,0,0,0,1.08,6.23c-4.25-.66-6.73-5.59-7.37-10-.34.61-.83,1.44-1.35,2.36,1.31,5,4.75,9.72,10,9.48a12.79,12.79,0,0,0,1.6,1.51c5.94,4.7,14,5.67,21.16,4a21.41,21.41,0,0,0,4.8-1.83c6.45,4.6,17.66,3.16,23.8-.15a23,23,0,0,0,6.93-6.27,9.39,9.39,0,0,0,4.17-1.1c3.41-1.81,5.32-5.17,6.36-8.75C290.09,182,289.66,181.14,289.32,180.38Zm-66.14,13.08a5.11,5.11,0,0,1-.74.15,7.33,7.33,0,0,1-1.5-4.41c0-3.15,3-8.69,6.38-5C230.45,187.54,226.79,192.54,223.18,193.46Zm23.48-3c.17-2.79,2.28-6.3,5.4-4.22,2.47,1.65,2.52,5.57,1.07,7.86a9,9,0,0,1-3.24,2.93A7.5,7.5,0,0,1,246.66,190.49Zm34.15-3.71a9.48,9.48,0,0,1-1.46,4.17,6.44,6.44,0,0,1-4.73-2.37c-1.83-2.33-2.12-7.38,1.82-7.5C279.45,181,281,184.17,280.81,186.78Z" style="fill:#37474f"></path></g><g id="freepik--Snow--inject-95"><path d="M154.41,310.73a328.54,328.54,0,0,0,50.6-9.1c16.72-4.5,28.36-10.78,48.73-7.49s41.72,14.47,59.4,14.47h34.57" style="fill:#fff"></path><path d="M154.41,310.73c8.17-.86,16.29-2.12,24.37-3.61s16.11-3.2,24-5.31,15.64-4.93,23.66-6.94a70.21,70.21,0,0,1,12.23-2,65.76,65.76,0,0,1,12.39.38c8.23,1,16.17,3.39,24,5.86s15.61,5.18,23.56,7.14a68.13,68.13,0,0,0,12.09,1.94c2,.12,4.09.09,6.15.11l6.16,0,24.65.24-24.65.25-6.16,0c-2,0-4.11.06-6.18,0A70,70,0,0,1,298.49,307c-8.05-1.85-15.82-4.58-23.66-7s-15.74-4.75-23.85-5.74a64.74,64.74,0,0,0-12.21-.42,68.63,68.63,0,0,0-12.07,1.91c-7.95,1.94-15.68,4.86-23.69,6.78A310.44,310.44,0,0,1,154.41,310.73Z" style="fill:#dbdbdb"></path><path d="M116.72,219.52a3.8,3.8,0,0,1,6.67,1.12,2.59,2.59,0,0,1,0,1.53,0,0,0,0,0,0,0,3.7,3.7,0,0,1-4.82,3.61A4,4,0,0,1,116.72,219.52Z" style="fill:#f2f2f2"></path><path d="M271.31,91A3.8,3.8,0,0,1,278,92.1a2.62,2.62,0,0,1,0,1.54v0a3.7,3.7,0,0,1-4.81,3.61A4,4,0,0,1,271.31,91Z" style="fill:#f2f2f2"></path><path d="M334.15,290.27a3.8,3.8,0,0,1,6.67,1.12,2.59,2.59,0,0,1,0,1.53v0a3.7,3.7,0,0,1-4.82,3.61A4,4,0,0,1,334.15,290.27Z" style="fill:#f2f2f2"></path><path d="M375.06,229.58a3.8,3.8,0,0,1,6.67,1.11,2.44,2.44,0,0,1,0,1.53v0a3.71,3.71,0,0,1-4.82,3.62A4,4,0,0,1,375.06,229.58Z" style="fill:#f2f2f2"></path><path d="M192.19,146.45a3.8,3.8,0,0,1,6.67,1.11,2.59,2.59,0,0,1,0,1.53v0a3.7,3.7,0,0,1-4.81,3.61A4,4,0,0,1,192.19,146.45Z" style="fill:#f2f2f2"></path><path d="M208,222.92c3,0,3,4.64,0,4.64S205,222.92,208,222.92Z" style="fill:#f2f2f2"></path><path d="M381.87,194.73c3,0,3,4.65,0,4.65S378.88,194.73,381.87,194.73Z" style="fill:#f2f2f2"></path><path d="M296.06,134.58c3,0,3,4.65,0,4.65S293.07,134.58,296.06,134.58Z" style="fill:#f2f2f2"></path><path d="M170.1,291.82c3,0,3,4.65,0,4.65S167.11,291.82,170.1,291.82Z" style="fill:#f2f2f2"></path><path d="M313.14,261.5c3,0,3,4.65,0,4.65S310.15,261.5,313.14,261.5Z" style="fill:#f2f2f2"></path><path d="M275.48,180.77c3,0,3,4.65,0,4.65S272.48,180.77,275.48,180.77Z" style="fill:#f2f2f2"></path><path d="M123.81,273.68c3,0,3,4.65,0,4.65S120.82,273.68,123.81,273.68Z" style="fill:#f2f2f2"></path><path d="M236.89,242.26a1.34,1.34,0,0,1,0,2.67A1.34,1.34,0,0,1,236.89,242.26Z" style="fill:#f2f2f2"></path><path d="M165.5,205.32a1.33,1.33,0,0,1,0,2.66A1.33,1.33,0,0,1,165.5,205.32Z" style="fill:#f2f2f2"></path><path d="M191.35,264.2a1.34,1.34,0,0,1,0,2.67A1.34,1.34,0,0,1,191.35,264.2Z" style="fill:#f2f2f2"></path><path d="M309.43,115.78a1.33,1.33,0,0,1,0,2.66A1.33,1.33,0,0,1,309.43,115.78Z" style="fill:#f2f2f2"></path><path d="M321.62,180.1a1.33,1.33,0,0,1,0,2.66A1.33,1.33,0,0,1,321.62,180.1Z" style="fill:#f2f2f2"></path><path d="M151.83,150.13a1.34,1.34,0,0,1,0,2.67A1.34,1.34,0,0,1,151.83,150.13Z" style="fill:#f2f2f2"></path><path d="M343.66,176.74a1.75,1.75,0,0,1,0,3.49A1.75,1.75,0,0,1,343.66,176.74Z" style="fill:#f2f2f2"></path><path d="M172.78,114.5a1.75,1.75,0,0,1,0,3.49A1.75,1.75,0,0,1,172.78,114.5Z" style="fill:#f2f2f2"></path><path d="M333.32,234.27a1.75,1.75,0,0,1,0,3.49A1.75,1.75,0,0,1,333.32,234.27Z" style="fill:#f2f2f2"></path></g><g id="freepik--Floor--inject-95"><polygon points="50.73 435.9 100.55 435.66 150.37 435.57 250 435.4 349.63 435.57 399.45 435.66 449.26 435.9 399.45 436.14 349.63 436.23 250 436.4 150.37 436.23 100.55 436.14 50.73 435.9" style="fill:#263238"></polygon></g></svg>